<?xml version="1.0" encoding="utf-8"?>
<!-- Generator: Adobe Illustrator 16.0.0, SVG Export Plug-In . SVG Version: 6.00 Build 0)  -->
<!DOCTYPE svg PUBLIC "-//W3C//DTD SVG 1.1//EN" "http://www.w3.org/Graphics/SVG/1.1/DTD/svg11.dtd">
<svg version="1.1" id="Layer_1" xmlns="http://www.w3.org/2000/svg" xmlns:xlink="http://www.w3.org/1999/xlink" x="0px" y="0px"
	 width="1280px" height="800px" viewBox="0 0 1280 800" enable-background="new 0 0 1280 800" xml:space="preserve">
<path fill="#22B573" d="M677.992,424.881l0.199,1.479l-2.217,0.459l-0.299,3.142h2.656l3.535-0.345l1.818-2.157l-1.938-0.757
	l-1.059-1.216l-1.598-2.577l-0.76-3.638l-2.996,0.599l-0.84,1.299v1.438l1.439,0.977L677.992,424.881z M677.992,424.881"/>
<path fill="#22B573" d="M675.455,426.104l0.16-1.979l-1.758-0.762l-2.457,0.562l-1.818,2.937v1.875h2.117L675.455,426.104z
	 M675.455,426.104"/>
<path fill="#22B573" d="M624.935,434.47"/>
<rect fill="#F6BC99" width="1280" height="800"/>
<g>
	<path fill="#8EC6C6" d="M441.895,581.086c0,78.369-63.537,141.9-141.905,141.9c-78.371,0-141.902-63.531-141.902-141.9
		c0-78.372,63.531-141.898,141.902-141.898C378.358,439.188,441.895,502.714,441.895,581.086z"/>
	<g>
		<defs>
			<rect id="SVGID_1_" x="154" y="436.644" width="290.091" height="290.833"/>
		</defs>
		<clipPath id="SVGID_2_">
			<use xlink:href="#SVGID_1_"  overflow="visible"/>
		</clipPath>
		<path clip-path="url(#SVGID_2_)" fill="#8EAEB2" d="M444.204,580.125c-0.037-4.258-0.266-8.492-0.673-12.619
			c-1.344-13.819-4.638-27.085-9.591-39.523c-0.38-0.902-0.728-1.864-1.108-2.767c-6.585-15.598-15.886-29.798-27.224-42.063
			c-0.729-0.787-1.484-1.575-2.243-2.364c-2.156-2.207-4.344-4.392-6.645-6.47c-25.795-23.485-60.067-37.827-97.607-37.827
			c-37.86,0-72.399,14.604-98.249,38.437c-6.03,5.572-11.577,11.64-16.582,18.104C165.311,517.572,154,548.288,154,581.604
			c0,80.042,65.117,145.111,145.115,145.111c56.309,0,105.156-32.228,129.233-79.183c5.126-10.025,9.143-20.714,11.828-31.945
			c0.697-2.854,1.284-5.713,1.812-8.622c1.45-8.22,2.239-16.707,2.239-25.361C444.227,581.113,444.204,580.613,444.204,580.125
			L444.204,580.125z M416.889,522.121l0.845-0.961c1.104,2.159,2.129,4.344,3.121,6.528l-1.371-0.026l-2.595,0.354V522.121z
			 M395.908,496.793l0.027-6.496c2.271,2.414,4.487,4.925,6.589,7.486l-2.626,3.903l-9.118-0.082l-0.592-1.891L395.908,496.793z
			 M220.858,480.674v-0.229h2.922l0.229-0.994h4.773v2.066l-1.364,1.81h-6.56V480.674z M225.52,487.149c0,0,2.89-0.496,3.153-0.496
			c0.228,0,0,2.909,0,2.909l-6.564,0.414l-1.25-1.491L225.52,487.149z M426.129,544.766h-10.607l-6.466-4.811l-6.824,0.641v4.17
			h-2.158l-2.334-1.657l-11.774-3.003v-7.639l-14.95,1.169l-4.635,2.502h-5.942l-2.917-0.32l-7.201,4.027v7.509l-14.717,10.612
			l1.221,4.555h3.003l-0.783,4.312l-2.098,0.782l-0.122,11.287l12.71,14.505h5.563l0.324-0.902h9.968l2.857-2.643h5.651l3.093,3.087
			l8.418,0.902l-1.106,11.157l9.36,16.505l-4.931,9.411l0.326,4.426l3.873,3.844v10.676l5.073,6.817v8.856h4.397
			c-24.423,30.026-61.642,49.261-103.288,49.261c-73.447,0-133.163-59.752-133.163-133.2c0-18.469,3.781-36.11,10.601-52.104v-4.176
			l4.784-5.768c1.661-3.116,3.411-6.176,5.304-9.156l0.236,2.42l-5.54,6.736c-1.717,3.235-3.321,6.529-4.751,9.943v7.572
			l5.516,2.653v10.553l5.3,9.036l4.344,0.674l0.552-3.095l-5.102-7.872l-0.995-7.632h2.976l1.256,7.86l7.37,10.738l-1.925,3.469
			l4.697,7.165l11.626,2.853v-1.869l4.634,0.674l-0.44,3.301l3.675,0.656l5.625,1.551l7.961,9.089l10.196,0.767l0.996,8.302
			l-6.968,4.866l-0.32,7.41l-1.024,4.539l10.09,12.618l0.788,4.322c0,0,3.64,0.984,4.075,0.984c0.438,0,8.19,5.855,8.19,5.855
			v22.821l2.772,0.768l-1.892,10.521l4.656,6.208l-0.839,10.4l6.122,10.818l7.894,6.872l7.926,0.146l0.762-2.532l-5.798-4.932
			l0.32-2.408l1.047-3.013l0.208-3.028l-3.941-0.113l-1.979-2.474l3.262-3.18l0.443-2.365l-3.653-1.045l0.209-2.212l5.216-0.794
			l7.923-3.784l2.659-4.87l8.304-10.639l-1.9-8.308l2.541-4.431l7.633,0.238l5.162-4.05l1.661-16.038l5.681-7.247l1.023-4.643
			l-5.22-1.691l-3.436-5.626l-11.719-0.119l-9.291-3.518l-0.44-6.649l-3.12-5.415l-8.392-0.124l-4.866-7.64l-4.322-2.126
			l-0.228,2.345l-7.845,0.456l-2.881-3.996l-8.189-1.652l-6.763,7.774l-10.609-1.778l-0.786-11.971l-7.755-1.344l3.121-5.855
			l-0.908-3.381l-10.167,6.823l-6.409-0.794l-2.278-5.018l1.376-5.148l3.553-6.534l8.13-4.11h15.706l-0.049,4.784l5.646,2.647
			l-0.432-8.188l4.047-4.109l8.217-5.393l0.584-3.795l8.19-8.53l8.688-4.816l-0.756-0.641l5.888-5.535l2.153,0.56l0.995,1.245
			l2.237-2.473l0.562-0.262l-2.457-0.354l-2.498-0.814v-2.387l1.334-1.082h2.89l1.342,0.582l1.161,2.337l1.397-0.233v-0.212
			l0.411,0.152l4.083-0.614l0.582-2.012l2.337,0.582v2.185l-2.169,1.496l0.323,2.354l7.377,2.283l0.03,0.075l1.688-0.142
			l0.121-3.213l-5.858-2.643l-0.321-1.543l4.869-1.664l0.198-4.663l-5.103-3.089l-0.318-7.846l-6.967,3.409h-2.539l0.642-5.974
			l-9.468-2.234l-3.937,2.967v9.063l-7.048,2.219l-2.831,5.915l-3.09,0.488v-7.545l-6.619-0.937l-3.319-2.152l-1.346-4.893
			l11.866-6.942l5.836-1.778l0.58,3.913l3.235-0.15l0.228-1.984l3.387-0.462l0.052-0.702l-1.451-0.614l-0.324-2.066l4.17-0.348
			l2.511-2.631l0.142-0.168h0.027l0.761-0.788l8.745-1.109l3.874,3.294l-10.142,5.393l12.876,3.057l1.696-4.307h5.625l2.008-3.768
			l-3.991-1.017v-4.746l-12.509-5.54l-8.622,0.989l-4.866,2.562l0.321,6.181l-5.102-0.756l-0.78-3.436l4.89-4.431l-8.864-0.441
			l-2.528,0.789l-1.108,2.969l3.316,0.564l-0.664,3.316l-5.654,0.35l-0.873,2.185l-8.196,0.234c0,0-0.198-4.633-0.552-4.633
			c-0.323,0,6.413-0.12,6.413-0.12l4.893-4.771l-2.68-1.316l-3.528,3.441l-5.888-0.354l-3.52-4.865h-7.524l-7.867,5.861h7.198
			l0.668,2.125l-1.864,1.714l7.961,0.244l1.22,2.875l-8.979-0.348l-0.429-2.207l-5.628-1.235l-3.012-1.657l-6.695,0.064
			c21.975-16.004,48.992-25.475,78.224-25.475c33.696,0,64.439,12.585,87.928,33.256l-1.566,2.815l-6.154,2.425l-2.597,2.8
			l0.584,3.289l3.181,0.439l1.922,4.78l5.445-2.219l0.904,6.389h-1.63l-4.488-0.675l-4.982,0.843l-4.809,6.822l-6.905,1.082
			l-0.995,5.888l2.917,0.696l-0.846,3.794l-6.852-1.369l-6.269,1.369l-1.305,3.464l1.076,7.345l3.67,1.719l6.178-0.034l4.173-0.369
			l1.277-3.327l6.53-8.454l4.284,0.875l4.229-3.816l0.785,2.969l10.407,7.029l-1.284,1.687l-4.694-0.225l1.81,2.534l2.884,0.642
			l3.382-1.408l-0.06-4.077l1.483-0.755l-1.193-1.277l-6.934-3.856l-1.841-5.153h5.771l1.84,1.832l4.982,4.285l0.202,5.164
			l5.131,5.476l1.923-7.493l3.557-1.95l0.668,6.153l3.5,3.811l6.936-0.108c1.343,3.437,2.536,6.96,3.583,10.547L426.129,544.766z
			 M233.153,502.421l3.474-1.664l3.147,0.762l-1.076,4.219l-3.406,1.087L233.153,502.421z M251.665,512.385v2.741h-7.983
			l-2.975-0.815l0.762-1.926l3.811-1.57h5.225v1.57H251.665z M255.307,516.207v2.654l-1.985,1.282l-2.498,0.456v-4.393H255.307z
			 M253.062,515.126v-3.148l2.748,2.474L253.062,515.126z M254.314,521.515v2.587l-1.895,1.897h-4.253l0.671-2.887l2.012-0.175
			l0.408-0.994L254.314,521.515z M243.768,516.207h4.398l-5.624,7.895l-2.328-1.256l0.492-3.323L243.768,516.207z M261.774,520.6
			v2.599h-4.221l-1.161-1.684v-2.394h0.351L261.774,520.6z M257.874,517.05l1.226-1.256l2.036,1.256l-1.625,1.343L257.874,517.05z
			 M428.287,551.469l0.441-0.463c0.168,0.723,0.348,1.484,0.522,2.273L428.287,551.469z M428.287,551.469"/>
	</g>
</g>
<g>
	<path fill="#FEF8A6" d="M147.924,385.794c-3.268,17.751-5.917,20.401-23.669,23.669c17.752,3.269,20.401,5.917,23.669,23.67
		c3.269-17.753,5.918-20.401,23.67-23.67C153.842,406.195,151.192,403.546,147.924,385.794L147.924,385.794z M147.924,385.794"/>
	<path fill="#FEF8A6" d="M173.614,419.096c-2.078,11.289-3.763,12.976-15.053,15.053c11.29,2.079,12.975,3.764,15.053,15.053
		c2.079-11.289,3.763-12.975,15.053-15.053C177.377,432.071,175.693,430.385,173.614,419.096L173.614,419.096z M173.614,419.096"/>
</g>
<path fill="#FEF8A6" d="M418.225,415.518c-3.268,17.752-5.917,20.401-23.669,23.67c17.752,3.269,20.401,5.917,23.669,23.67
	c3.269-17.753,5.918-20.401,23.67-23.67C424.143,435.919,421.493,433.27,418.225,415.518L418.225,415.518z M418.225,415.518"/>
<path fill="#FEF8A6" d="M97.61,550.982c-2.078,11.289-3.763,12.975-15.053,15.053c11.29,2.078,12.975,3.764,15.053,15.053
	c2.079-11.289,3.763-12.975,15.053-15.053C101.374,563.957,99.689,562.271,97.61,550.982L97.61,550.982z M97.61,550.982"/>
<path fill="#FEF8A6" d="M418.225,692.88c-2.078,11.289-3.763,12.975-15.053,15.053c11.29,2.078,12.975,3.764,15.053,15.053
	c2.079-11.289,3.763-12.975,15.053-15.053C421.988,705.854,420.304,704.169,418.225,692.88L418.225,692.88z M418.225,692.88"/>
<path fill="#FEF8A6" d="M394.556,733.947c-2.078,11.289-3.763,12.975-15.053,15.053c11.29,2.078,12.975,3.764,15.053,15.053
	c2.079-11.289,3.763-12.975,15.053-15.053C398.319,746.922,396.634,745.236,394.556,733.947L394.556,733.947z M394.556,733.947"/>
</svg>
