<?xml version="1.0" encoding="utf-8"?>
<!-- Generator: Adobe Illustrator 16.0.0, SVG Export Plug-In . SVG Version: 6.00 Build 0)  -->
<!DOCTYPE svg PUBLIC "-//W3C//DTD SVG 1.1//EN" "http://www.w3.org/Graphics/SVG/1.1/DTD/svg11.dtd">
<svg version="1.1" id="Layer_1" xmlns="http://www.w3.org/2000/svg" xmlns:xlink="http://www.w3.org/1999/xlink" x="0px" y="0px"
	 width="1280px" height="800px" viewBox="0 0 1280 800" enable-background="new 0 0 1280 800" xml:space="preserve">
<path fill="#22B573" d="M677.992,424.881l0.199,1.479l-2.217,0.459l-0.299,3.142h2.656l3.535-0.345l1.818-2.157l-1.938-0.757
	l-1.059-1.216l-1.598-2.577l-0.76-3.638l-2.996,0.599l-0.84,1.299v1.438l1.439,0.977L677.992,424.881z M677.992,424.881"/>
<path fill="#22B573" d="M675.455,426.104l0.16-1.979l-1.758-0.762l-2.457,0.562l-1.818,2.937v1.875h2.117L675.455,426.104z
	 M675.455,426.104"/>
<path fill="#22B573" d="M624.935,434.47"/>
<rect fill="#F6BC99" width="1280" height="800"/>
<g opacity="0.5">
	<g>
		<circle fill="#8EC6C6" cx="174.619" cy="277.492" r="88.62"/>
		<g>
			<defs>
				<rect id="SVGID_1_" x="83.446" y="187.286" width="181.164" height="181.628"/>
			</defs>
			<clipPath id="SVGID_2_">
				<use xlink:href="#SVGID_1_"  overflow="visible"/>
			</clipPath>
			<path clip-path="url(#SVGID_2_)" fill="#8EAEB2" d="M264.681,276.892c-0.023-2.659-0.166-5.304-0.42-7.88
				c-0.84-8.631-2.897-16.916-5.99-24.683c-0.237-0.564-0.455-1.165-0.692-1.729c-4.112-9.74-9.92-18.609-17.001-26.269
				c-0.456-0.492-0.927-0.984-1.401-1.477c-1.346-1.378-2.713-2.743-4.149-4.041c-16.109-14.667-37.513-23.624-60.957-23.624
				c-23.644,0-45.214,9.12-61.357,24.004c-3.766,3.48-7.23,7.269-10.356,11.306c-11.849,15.326-18.913,34.509-18.913,55.315
				c0,49.986,40.666,90.623,90.625,90.623c35.166,0,65.671-20.126,80.708-49.45c3.201-6.261,5.709-12.936,7.386-19.95
				c0.436-1.782,0.802-3.568,1.131-5.384c0.906-5.133,1.398-10.434,1.398-15.838C264.695,277.509,264.681,277.196,264.681,276.892
				L264.681,276.892z M247.623,240.668l0.528-0.601c0.689,1.349,1.329,2.713,1.949,4.077l-0.856-0.017l-1.621,0.221V240.668z
				 M234.52,224.85l0.017-4.057c1.419,1.508,2.802,3.076,4.115,4.675l-1.64,2.438l-5.694-0.051l-0.37-1.181L234.52,224.85z
				 M125.2,214.783v-0.143h1.824l0.143-0.621h2.981v1.291l-0.853,1.13H125.2V214.783z M128.11,218.827c0,0,1.805-0.31,1.97-0.31
				c0.142,0,0,1.817,0,1.817l-4.1,0.259l-0.781-0.932L128.11,218.827z M253.393,254.81h-6.624l-4.038-3.004l-4.262,0.4v2.604h-1.347
				l-1.458-1.035l-7.353-1.875v-4.77l-9.336,0.729l-2.895,1.563h-3.711l-1.821-0.2l-4.497,2.515v4.689l-9.191,6.628l0.762,2.844
				h1.876l-0.489,2.692l-1.31,0.489l-0.077,7.049l7.938,9.059h3.474l0.203-0.564h6.225l1.784-1.649h3.529l1.932,1.927l5.256,0.564
				l-0.69,6.967l5.845,10.307l-3.079,5.878l0.204,2.764l2.418,2.401v6.667l3.168,4.257v5.531h2.746
				C223.323,348.988,200.08,361,174.071,361c-45.868,0-83.162-37.316-83.162-83.185c0-11.535,2.362-22.551,6.621-32.54v-2.608
				l2.988-3.602c1.037-1.946,2.13-3.856,3.312-5.718l0.147,1.511l-3.459,4.207c-1.073,2.021-2.074,4.078-2.967,6.21v4.729
				l3.444,1.657v6.59l3.311,5.643l2.713,0.42l0.345-1.933l-3.187-4.916l-0.621-4.766h1.858l0.785,4.909l4.603,6.706l-1.203,2.167
				l2.933,4.475l7.261,1.782v-1.167l2.894,0.42l-0.274,2.062l2.295,0.41l3.512,0.969l4.973,5.676l6.367,0.479l0.622,5.185
				l-4.352,3.039l-0.2,4.627l-0.64,2.835l6.302,7.88l0.492,2.699c0,0,2.273,0.615,2.545,0.615c0.273,0,5.115,3.657,5.115,3.657
				v14.252l1.731,0.479l-1.182,6.57l2.908,3.877l-0.524,6.495l3.823,6.756l4.93,4.292l4.95,0.09l0.476-1.581l-3.621-3.08l0.2-1.504
				l0.654-1.881l0.13-1.891l-2.461-0.071l-1.236-1.544l2.037-1.986l0.276-1.477l-2.281-0.652l0.131-1.381l3.257-0.496l4.948-2.363
				l1.661-3.041l5.186-6.644l-1.187-5.188l1.587-2.768l4.768,0.149l3.223-2.529l1.038-10.017l3.547-4.525l0.639-2.899l-3.26-1.056
				l-2.145-3.513l-7.319-0.075l-5.802-2.197l-0.274-4.152l-1.949-3.382l-5.24-0.078l-3.039-4.771l-2.7-1.328l-0.142,1.464
				l-4.899,0.285l-1.8-2.496l-5.114-1.032l-4.224,4.855l-6.625-1.111l-0.491-7.476l-4.843-0.839l1.949-3.657l-0.567-2.111
				l-6.349,4.261l-4.003-0.496l-1.422-3.134l0.859-3.215l2.219-4.081l5.078-2.567h9.809l-0.031,2.988l3.526,1.653l-0.27-5.114
				l2.528-2.566l5.131-3.368l0.365-2.37l5.114-5.328l5.427-3.008l-0.472-0.399l3.677-3.457l1.344,0.35l0.622,0.777l1.397-1.544
				l0.351-0.164l-1.534-0.221l-1.561-0.509v-1.49l0.833-0.676h1.805l0.838,0.364l0.725,1.459l0.873-0.145v-0.132l0.256,0.095
				l2.55-0.384l0.363-1.256l1.459,0.364v1.364l-1.354,0.935l0.202,1.47l4.607,1.426l0.019,0.047l1.054-0.088l0.075-2.006
				l-3.658-1.651l-0.2-0.963l3.041-1.039l0.124-2.912l-3.187-1.929l-0.199-4.899l-4.351,2.129h-1.585l0.401-3.73l-5.913-1.396
				l-2.458,1.853v5.66l-4.402,1.385l-1.768,3.694l-1.93,0.305v-4.712l-4.134-0.585l-2.072-1.344l-0.841-3.056l7.41-4.336l3.645-1.11
				l0.362,2.443l2.02-0.094l0.143-1.24l2.115-0.288l0.033-0.439l-0.907-0.383l-0.203-1.291l2.605-0.217l1.568-1.643l0.088-0.105
				h0.018l0.475-0.492l5.461-0.693l2.419,2.058l-6.334,3.367l8.042,1.909l1.06-2.689h3.513l1.254-2.354l-2.492-0.634v-2.964
				l-7.812-3.459l-5.385,0.618l-3.039,1.6l0.2,3.86l-3.186-0.472l-0.487-2.146l3.053-2.767l-5.536-0.275l-1.579,0.492l-0.692,1.854
				l2.071,0.352l-0.415,2.071l-3.531,0.218l-0.544,1.364l-5.118,0.146c0,0-0.124-2.893-0.345-2.893
				c-0.202,0,4.005-0.076,4.005-0.076l3.056-2.979l-1.674-0.822l-2.204,2.149l-3.677-0.221l-2.198-3.039h-4.699l-4.912,3.661h4.495
				l0.417,1.327l-1.164,1.07l4.973,0.152l0.762,1.796l-5.607-0.217l-0.268-1.378l-3.515-0.772l-1.881-1.035l-4.182,0.04
				c13.724-9.994,30.596-15.909,48.852-15.909c21.043,0,40.243,7.859,54.912,20.769l-0.978,1.758l-3.843,1.515l-1.622,1.749
				l0.365,2.054l1.986,0.274l1.2,2.985l3.401-1.385l0.564,3.99h-1.018l-2.803-0.421l-3.112,0.526l-3.003,4.26l-4.312,0.676
				l-0.622,3.677l1.822,0.435l-0.528,2.37l-4.279-0.855l-3.915,0.855l-0.814,2.163l0.672,4.586l2.292,1.074l3.858-0.021l2.605-0.231
				l0.798-2.078l4.078-5.28l2.675,0.546l2.641-2.383l0.49,1.854l6.5,4.39l-0.802,1.054l-2.931-0.141l1.13,1.583l1.801,0.401
				l2.112-0.879l-0.037-2.546l0.926-0.472l-0.745-0.798l-4.33-2.408l-1.15-3.218h3.604l1.149,1.144l3.111,2.676l0.126,3.225
				l3.205,3.419l1.201-4.68l2.221-1.218l0.417,3.843l2.186,2.379l4.332-0.067c0.838,2.146,1.583,4.346,2.237,6.586L253.393,254.81z
				 M132.878,228.365l2.169-1.039l1.966,0.476l-0.672,2.635l-2.127,0.679L132.878,228.365z M144.438,234.587v1.712h-4.986
				l-1.858-0.509l0.476-1.203l2.379-0.981h3.263v0.981H144.438z M146.713,236.974v1.657l-1.239,0.801l-1.561,0.285v-2.743H146.713z
				 M145.311,236.299v-1.966l1.716,1.545L145.311,236.299z M146.093,240.289v1.615l-1.183,1.185h-2.656l0.419-1.803l1.256-0.109
				l0.255-0.621L146.093,240.289z M139.507,236.974h2.747l-3.512,4.93l-1.454-0.784l0.307-2.075L139.507,236.974z M150.751,239.717
				v1.623h-2.636l-0.725-1.051v-1.495h0.219L150.751,239.717z M148.316,237.5l0.766-0.784l1.271,0.784l-1.015,0.839L148.316,237.5z
				 M254.741,258.996l0.275-0.289c0.104,0.452,0.217,0.927,0.326,1.419L254.741,258.996z M254.741,258.996"/>
		</g>
	</g>
	<g>
		<path fill="#FEF8A6" d="M79.651,155.53c-2.041,11.086-3.695,12.741-14.781,14.782c11.086,2.041,12.74,3.695,14.781,14.782
			c2.042-11.086,3.696-12.741,14.782-14.782C83.347,168.271,81.692,166.616,79.651,155.53L79.651,155.53z M79.651,155.53"/>
		<path fill="#FEF8A6" d="M95.695,176.328c-1.297,7.05-2.351,8.103-9.401,9.4c7.05,1.298,8.104,2.35,9.401,9.401
			c1.298-7.051,2.35-8.104,9.401-9.401C98.045,184.431,96.993,183.377,95.695,176.328L95.695,176.328z M95.695,176.328"/>
	</g>
	<path fill="#FEF8A6" d="M248.457,174.093c-2.041,11.086-3.695,12.741-14.781,14.782c11.086,2.041,12.74,3.695,14.781,14.782
		c2.042-11.087,3.696-12.741,14.782-14.782C252.152,186.833,250.498,185.179,248.457,174.093L248.457,174.093z M248.457,174.093"/>
	<path fill="#FEF8A6" d="M48.229,258.691c-1.297,7.05-2.35,8.104-9.4,9.401c7.05,1.298,8.103,2.351,9.4,9.4
		c1.298-7.05,2.351-8.103,9.401-9.4C50.58,266.795,49.528,265.742,48.229,258.691L48.229,258.691z M48.229,258.691"/>
	<path fill="#FEF8A6" d="M248.457,347.308c-1.297,7.05-2.35,8.103-9.4,9.4c7.05,1.298,8.103,2.351,9.4,9.401
		c1.298-7.05,2.351-8.103,9.401-9.401C250.807,355.411,249.755,354.358,248.457,347.308L248.457,347.308z M248.457,347.308"/>
	<path fill="#FEF8A6" d="M233.675,372.956c-1.298,7.05-2.35,8.102-9.401,9.4c7.051,1.298,8.103,2.35,9.401,9.4
		c1.298-7.05,2.35-8.102,9.401-9.4C236.025,381.058,234.973,380.005,233.675,372.956L233.675,372.956z M233.675,372.956"/>
</g>
</svg>
