<?xml version="1.0" encoding="utf-8"?>
<!-- Generator: Adobe Illustrator 16.0.0, SVG Export Plug-In . SVG Version: 6.00 Build 0)  -->
<!DOCTYPE svg PUBLIC "-//W3C//DTD SVG 1.1//EN" "http://www.w3.org/Graphics/SVG/1.1/DTD/svg11.dtd">
<svg version="1.1" id="Layer_1" xmlns="http://www.w3.org/2000/svg" xmlns:xlink="http://www.w3.org/1999/xlink" x="0px" y="0px"
	 width="1280px" height="800px" viewBox="0 0 1280 800" enable-background="new 0 0 1280 800" xml:space="preserve">
<path fill="#22B573" d="M677.992,424.881l0.199,1.479l-2.217,0.459l-0.299,3.142h2.656l3.535-0.345l1.818-2.157l-1.938-0.757
	l-1.059-1.216l-1.598-2.577l-0.76-3.638l-2.996,0.599l-0.84,1.299v1.438l1.439,0.977L677.992,424.881z M677.992,424.881"/>
<path fill="#22B573" d="M675.455,426.104l0.16-1.979l-1.758-0.762l-2.457,0.562l-1.818,2.937v1.875h2.117L675.455,426.104z
	 M675.455,426.104"/>
<path fill="#22B573" d="M624.935,434.47"/>
<rect fill="#F6BC99" width="1280" height="800"/>
<g>
	<path fill="#007F80" d="M505.558,437.355c1.911-5.026,3.014-10.464,3.014-16.174c0-23.501-17.839-42.818-40.704-45.188
		c-6.421-17.301-23.035-29.68-42.591-29.68c-8.552,0-16.517,2.402-23.354,6.519c-7.769-13.922-22.622-23.333-39.699-23.333
		c-22.622,0-41.341,16.569-44.796,38.208c-1.866-0.221-3.729-0.365-5.637-0.365c-25.093,0-45.454,20.339-45.454,45.434
		c0,1.246,0.091,2.444,0.192,3.648c-12.715,8.062-21.197,22.229-21.197,38.399c0,14.287,6.62,27.033,16.934,35.365
		c-0.052,0.809-0.12,1.611-0.12,2.444c0,25.094,20.337,45.458,45.456,45.458c7.523,0,14.604-1.856,20.83-5.091l10.513-7.499
		c3.652-3.479,6.69-7.554,9.043-12.057l6.245-1.348c6.207,3.161,13.188,4.975,20.616,4.975c1.909,0,3.771-0.153,5.633-0.374
		l10.219-2.518c2.206-0.833,4.363-1.789,6.396-2.947c1.226,9.338,5.293,17.767,11.298,24.414l8.086,7.327
		c7.303,4.999,16.125,7.817,25.633,7.817c23.477,0,42.811-17.871,45.188-40.753c17.301-6.401,29.676-23.06,29.676-42.615
		C516.977,455.879,512.639,445.391,505.558,437.355z"/>
	<path fill="#A67D52" d="M391.925,545.934c-10.685,2.959-4.288-19.139-1.225-31.956l-10.22,2.519
		c-1.449,9.245-3.97,19.58-8.188,20.339c-4.604,0.834-12.47-13.373-18.061-24.939l-6.245,1.347l8.919,18.693
		c-0.024,0-4.876,2.138-17.962-6.636l-10.513,7.498c8.675,6.225,21.072,13.986,27.076,12.443c0,0,2.233,34.607,1.743,43.375
		c-0.91,16.713-5.928,35.312-9.459,50.39h54.647c0,0-8.062-33.573-8.405-44.771c-0.367-11.224,3.505-31.857,3.505-31.857
		l18.942-19.604l-8.086-7.327C403.173,540.077,397.193,544.481,391.925,545.934z"/>
</g>
<g>
	<rect x="218" y="559" fill="#F3A298" width="78" height="81"/>
	<g>
		<defs>
			<rect id="SVGID_1_" x="144" y="460.652" width="227" height="180.16"/>
		</defs>
		<clipPath id="SVGID_2_">
			<use xlink:href="#SVGID_1_"  overflow="visible"/>
		</clipPath>
		<path clip-path="url(#SVGID_2_)" fill="#8EC6C6" d="M256.683,496.854l-80.379,66.271c0,0.092-0.015,0.232-0.066,0.417
			c-0.042,0.185-0.067,0.318-0.067,0.419v67.1c0,2.42,0.879,4.516,2.655,6.283c1.768,1.775,3.863,2.664,6.284,2.664h53.686v-53.686
			h35.791v53.686h53.677c2.421,0,4.516-0.889,6.284-2.656c1.776-1.768,2.664-3.871,2.664-6.291v-67.1
			c0-0.377-0.05-0.653-0.143-0.836L256.683,496.854z M256.683,496.854"/>
		<path clip-path="url(#SVGID_2_)" fill="#004853" d="M367.816,548.025l-30.613-25.443v-57.037c0-1.307-0.419-2.379-1.257-3.218
			c-0.838-0.835-1.91-1.255-3.217-1.255h-26.834c-1.307,0-2.379,0.42-3.217,1.255c-0.837,0.839-1.256,1.911-1.256,3.218v27.262
			l-34.106-28.517c-2.983-2.421-6.527-3.638-10.624-3.638c-4.105,0-7.642,1.217-10.623,3.638l-100.518,83.735
			c-0.931,0.746-1.442,1.744-1.534,3c-0.092,1.257,0.235,2.356,0.98,3.293l8.663,10.338c0.747,0.838,1.727,1.357,2.932,1.541
			c1.124,0.093,2.246-0.234,3.361-0.979l96.73-80.661l96.74,80.661c0.746,0.653,1.726,0.979,2.933,0.979h0.427
			c1.207-0.184,2.178-0.703,2.932-1.541l8.671-10.347c0.737-0.928,1.072-2.027,0.972-3.284
			C369.266,549.77,368.746,548.771,367.816,548.025L367.816,548.025z M367.816,548.025"/>
	</g>
</g>
</svg>
