<?xml version="1.0" encoding="utf-8"?>
<!-- Generator: Adobe Illustrator 16.0.0, SVG Export Plug-In . SVG Version: 6.00 Build 0)  -->
<!DOCTYPE svg PUBLIC "-//W3C//DTD SVG 1.1//EN" "http://www.w3.org/Graphics/SVG/1.1/DTD/svg11.dtd">
<svg version="1.1" id="Layer_1" xmlns="http://www.w3.org/2000/svg" xmlns:xlink="http://www.w3.org/1999/xlink" x="0px" y="0px"
	 width="1280px" height="800px" viewBox="0 0 1280 800" enable-background="new 0 0 1280 800" xml:space="preserve">
<path fill="#22B573" d="M677.992,424.881l0.199,1.479l-2.217,0.459l-0.299,3.142h2.656l3.535-0.345l1.818-2.157l-1.938-0.757
	l-1.059-1.216l-1.598-2.577l-0.76-3.638l-2.996,0.599l-0.84,1.299v1.438l1.439,0.977L677.992,424.881z M677.992,424.881"/>
<path fill="#22B573" d="M675.455,426.104l0.16-1.979l-1.758-0.762l-2.457,0.562l-1.818,2.937v1.875h2.117L675.455,426.104z
	 M675.455,426.104"/>
<path fill="#22B573" d="M624.935,434.47"/>
<rect fill="#F6BC99" width="1280" height="800"/>
<g opacity="0.3">
	<path fill="#007F80" d="M334.044,235.66c1.369-3.601,2.159-7.497,2.159-11.587c0-16.838-12.781-30.678-29.163-32.376
		c-4.6-12.396-16.504-21.265-30.515-21.265c-6.127,0-11.833,1.721-16.732,4.67c-5.566-9.975-16.208-16.717-28.443-16.717
		c-16.208,0-29.62,11.871-32.095,27.375c-1.336-0.158-2.671-0.261-4.039-0.261c-17.979,0-32.566,14.572-32.566,32.551
		c0,0.893,0.065,1.751,0.138,2.614c-9.11,5.776-15.187,15.926-15.187,27.512c0,10.235,4.743,19.368,12.132,25.338
		c-0.038,0.579-0.086,1.154-0.086,1.751c0,17.979,14.571,32.569,32.567,32.569c5.39,0,10.463-1.33,14.923-3.647l7.532-5.373
		c2.617-2.493,4.793-5.412,6.479-8.638l4.474-0.966c4.447,2.265,9.449,3.564,14.771,3.564c1.368,0,2.702-0.11,4.036-0.269
		l7.321-1.804c1.581-0.597,3.126-1.281,4.583-2.111c0.879,6.69,3.793,12.729,8.095,17.491l5.793,5.25
		c5.232,3.582,11.553,5.601,18.365,5.601c16.82,0,30.673-12.804,32.376-29.197c12.396-4.587,21.262-16.521,21.262-30.533
		C342.226,248.932,339.118,241.417,334.044,235.66z"/>
	<path fill="#A67D52" d="M252.63,313.453c-7.655,2.12-3.072-13.712-0.877-22.896l-7.322,1.805
		c-1.038,6.624-2.844,14.028-5.866,14.572c-3.299,0.598-8.934-9.582-12.94-17.868l-4.474,0.965l6.391,13.393
		c-0.018,0-3.494,1.532-12.87-4.754l-7.532,5.372c6.216,4.46,15.097,10.021,19.399,8.915c0,0,1.6,24.795,1.249,31.077
		c-0.652,11.974-4.247,25.3-6.777,36.102h39.153c0,0-5.776-24.054-6.022-32.077c-0.263-8.041,2.511-22.824,2.511-22.824
		l13.571-14.046l-5.793-5.25C260.688,309.257,256.404,312.413,252.63,313.453z"/>
</g>
<g opacity="0.3">
	<rect x="78" y="322" fill="#F3A298" width="56" height="58"/>
	<g>
		<defs>
			<rect id="SVGID_1_" x="24" y="251.466" width="162.638" height="129.079"/>
		</defs>
		<clipPath id="SVGID_2_">
			<use xlink:href="#SVGID_1_"  overflow="visible"/>
		</clipPath>
		<path clip-path="url(#SVGID_2_)" fill="#8EC6C6" d="M48.31,324.885c-0.066,0.131-0.102,0.328-0.102,0.599v48.074
			c0,1.734,0.636,3.241,1.909,4.508c1.267,1.267,2.767,1.903,4.502,1.903h38.458v-38.464h25.643v38.464h38.464
			c1.734,0,3.236-0.637,4.502-1.909c1.272-1.267,1.902-2.768,1.902-4.502v-48.074c0-0.072-0.018-0.168-0.048-0.3
			c-0.037-0.133-0.047-0.233-0.047-0.299l-57.588-47.481L48.31,324.885z M105.904,277.403"/>
		<path clip-path="url(#SVGID_2_)" fill="#004853" d="M26.281,314.066c-0.666,0.534-1.038,1.249-1.104,2.149
			c-0.072,0.9,0.168,1.688,0.696,2.353l6.213,7.413c0.54,0.601,1.236,0.973,2.101,1.104h0.306c0.864,0,1.566-0.234,2.101-0.702
			l69.311-57.791l69.304,57.791c0.799,0.534,1.603,0.769,2.408,0.702c0.863-0.132,1.566-0.504,2.101-1.104l6.207-7.406
			c0.534-0.672,0.768-1.459,0.703-2.359c-0.066-0.9-0.433-1.615-1.1-2.149l-72.017-59.994c-2.136-1.734-4.67-2.606-7.611-2.606
			c-2.935,0-5.474,0.872-7.611,2.606l-24.436,20.432v-19.532c0-0.937-0.3-1.704-0.9-2.306c-0.6-0.598-1.369-0.898-2.305-0.898
			H51.419c-0.937,0-1.705,0.301-2.305,0.898c-0.6,0.602-0.9,1.369-0.9,2.306v40.865L26.281,314.066L26.281,314.066z M26.281,314.066
			"/>
	</g>
</g>
</svg>
