<?xml version="1.0" encoding="utf-8"?>
<!-- Generator: Adobe Illustrator 16.0.0, SVG Export Plug-In . SVG Version: 6.00 Build 0)  -->
<!DOCTYPE svg PUBLIC "-//W3C//DTD SVG 1.1//EN" "http://www.w3.org/Graphics/SVG/1.1/DTD/svg11.dtd">
<svg version="1.1" id="Layer_1" xmlns="http://www.w3.org/2000/svg" xmlns:xlink="http://www.w3.org/1999/xlink" x="0px" y="0px"
	 width="1280px" height="800px" viewBox="0 0 1280 800" enable-background="new 0 0 1280 800" xml:space="preserve">
<path fill="#22B573" d="M677.992,424.881l0.199,1.479l-2.217,0.459l-0.299,3.142h2.656l3.535-0.345l1.818-2.157l-1.938-0.757
	l-1.059-1.216l-1.598-2.577l-0.76-3.638l-2.996,0.599l-0.84,1.299v1.438l1.439,0.977L677.992,424.881z M677.992,424.881"/>
<path fill="#22B573" d="M675.455,426.104l0.16-1.979l-1.758-0.762l-2.457,0.562l-1.818,2.937v1.875h2.117L675.455,426.104z
	 M675.455,426.104"/>
<path fill="#22B573" d="M624.935,434.47"/>
<rect fill="#F6BC99" width="1280" height="800"/>
<path fill="none" d="M2138.672,17.968c0-8.78-6.672-16.072-14.672-17.619v35.238C2132,34.04,2138.672,26.733,2138.672,17.968z"/>
<g opacity="0.4">
	<g>
		<path fill="#FFFFFF" d="M176.496,300.425c1.899,0,3.504-1.542,3.504-3.452v-25.86c0-1.904-1.604-3.445-3.504-3.445
			c-1.902,0-3.496,1.541-3.496,3.445v25.86C173,298.883,174.594,300.425,176.496,300.425z"/>
		<path fill="#F3A298" d="M175.559,311h25.861c6.093,0,11.135-4.661,11.944-10.543c8.283-0.803,15.036-7.86,15.036-16.353
			c0-8.453-6.399-15.479-14.399-16.343v-5.267c0-1.91-2.054-2.494-3.955-2.494h-8.961h-5.206h-10.307h-5.207H166.94
			c-1.91,0-2.94,0.584-2.94,2.494v36.201C164,305.358,168.904,311,175.559,311z M214,274.728c5,0.818,7.761,4.674,7.761,9.318
			c0,4.636-2.761,8.502-7.761,9.319V274.728z M173,271.113c0-1.904,1.594-3.445,3.496-3.445c1.899,0,3.504,1.541,3.504,3.445v25.86
			c0,1.91-1.604,3.452-3.504,3.452c-1.902,0-3.496-1.542-3.496-3.452V271.113z"/>
		<path fill="#FFFFFF" d="M187.784,253.059c-0.42-2.806-2.408-5.234-4.161-7.197c-2.509-2.813-3.873-4.612-2.657-6.947
			c0.389-0.748,0.179-1.726-0.506-2.232c-0.678-0.499-1.628-0.463-2.229,0.128c-8.064,7.918-3.787,13.485-0.662,17.272
			c1.863,2.258,3.033,3.917,2.854,5.917h5.411C187.442,257,188.109,255.208,187.784,253.059z"/>
		<path fill="#FFFFFF" d="M203.297,253.059c-0.42-2.806-2.408-5.234-4.16-7.197c-2.509-2.813-3.873-4.612-2.659-6.947
			c0.391-0.748,0.181-1.726-0.505-2.232c-0.678-0.499-1.629-0.463-2.229,0.128c-8.056,7.918-3.787,13.485-0.661,17.272
			c1.863,2.258,3.031,3.917,2.854,5.917h5.409C202.955,257,203.623,255.208,203.297,253.059z"/>
	</g>
	<g>
		<path fill="#FFFFFF" d="M123.43,206.371c-0.421-2.806-2.408-5.077-4.161-7.04c-2.508-2.813-3.872-4.533-2.657-6.871
			c0.39-0.748,0.18-1.687-0.505-2.194c-0.678-0.498-1.629-0.439-2.229,0.154c-8.057,7.917-3.788,13.178-0.663,16.964
			c1.864,2.258,3.032,4.615,2.854,5.615h5.411C123.087,210,123.755,208.521,123.43,206.371z"/>
		<path fill="#8EAEB2" d="M81.886,193.025c0.058-0.403,0.115-0.791,0.115-1.208c0-4.796-3.874-8.688-8.667-8.688
			c-4.794,0-8.688,3.893-8.688,8.688c0,0.576,0.056,1.149,0.172,1.685c-14.728,3.722-20.612,15.168-20.612,15.168h60.288
			C104.496,208.67,98.09,196.146,81.886,193.025L81.886,193.025z M81.886,193.025"/>
		<g>
			<defs>
				<rect id="SVGID_1_" x="13.869" y="183.128" width="117.818" height="127.636"/>
			</defs>
			<clipPath id="SVGID_2_">
				<use xlink:href="#SVGID_1_"  overflow="visible"/>
			</clipPath>
			<path clip-path="url(#SVGID_2_)" fill="#F3A298" d="M71.453,273.601h10.185v-3.087H71.453v-5.925h10.185V261.5H71.453v-6.674
				h10.185v-3.087H71.453v-6.059h10.185v-3.069H71.453v-5.331h10.185v-3.067H71.453v-6.75h-3.412v52.888h3.412V273.601z
				 M71.453,273.601"/>
			<path clip-path="url(#SVGID_2_)" fill="#8EAEB2" d="M83.708,292.105h34.058c2.723-35.073-3.74-57.892-3.74-57.892
				s13.289-8.514,15.322-21.458H42.175c0,0-1.405,2.553-3.227,7.917c-10.254,3.187-24.619,11.87-25.06,28.652
				c-0.46,17.316,10.873,29.281,16.662,34.249c-0.014,2.761-0.014,5.581,0.041,8.553h32.351v3.739H27.004v12.943h94.672v-12.943
				H83.708V292.105z M24.783,249.611c0.211-7.884,5.443-12.714,10.563-15.59c-1.841,8.517-3.528,19.771-4.314,34.133
				C27.618,263.495,24.591,257.206,24.783,249.611L24.783,249.611z M73.852,218.315c9.646,0,17.469,15.421,17.469,34.402
				c0,19.005-7.824,34.402-17.469,34.402c-9.665,0-17.489-15.397-17.489-34.402C56.363,233.736,64.187,218.315,73.852,218.315
				L73.852,218.315z M73.852,218.315"/>
		</g>
		<path fill="#FFFFFF" d="M118.851,185.129c0.42-2.806,2.407-5.035,4.161-6.998c2.508-2.812,3.873-4.512,2.657-6.848
			c-0.39-0.748-0.18-1.676,0.507-2.183c0.677-0.499,1.627-0.437,2.228,0.156c8.058,7.917,3.787,13.098,0.663,16.885
			c-1.864,2.257-2.677,3.204-2.854,5.53c-0.176,2.329-3.726,2.449-5.41,0C119.119,189.225,118.526,187.279,118.851,185.129z"/>
	</g>
	<g>
		<path fill="#FFFFFF" d="M288.497,300.425c1.9,0,3.503-1.542,3.503-3.452v-25.86c0-1.904-1.603-3.445-3.503-3.445
			c-1.903,0-3.497,1.541-3.497,3.445v25.86C285,298.883,286.594,300.425,288.497,300.425z"/>
		<path fill="#99DDE0" d="M300,298.695v-36.201c0-1.91,1.568-2.494-0.339-2.494h-13.426h-5.205h-10.309h-5.204h-8.961
			c-1.901,0-5.555,0.584-5.555,2.494v5.267c-10,0.864-13.601,7.767-13.601,16.222c0,8.492,7.086,15.671,15.37,16.474
			c0.81,5.882,6.317,10.543,12.411,10.543h25.862C297.697,311,300,305.358,300,298.695z M251,293.365
			c-5-0.817-7.761-4.683-7.761-9.319c0-4.645,2.761-8.5,7.761-9.318V293.365z M292,296.973c0,1.91-1.595,3.452-3.495,3.452
			c-1.902,0-3.505-1.542-3.505-3.452v-25.86c0-1.904,1.603-3.445,3.505-3.445c1.9,0,3.495,1.541,3.495,3.445V296.973z"/>
		<path fill="#FFFFFF" d="M290.04,253.059c-0.42-2.806-2.407-5.234-4.16-7.197c-2.508-2.813-3.873-4.612-2.657-6.947
			c0.39-0.748,0.178-1.726-0.507-2.232c-0.678-0.499-1.627-0.463-2.228,0.128c-8.057,7.918-3.787,13.485-0.662,17.272
			c1.863,2.258,3.032,3.917,2.854,5.917h5.409C289.698,257,290.365,255.208,290.04,253.059z"/>
		<path fill="#FFFFFF" d="M274.527,253.059c-0.421-2.806-2.408-5.234-4.16-7.197c-2.509-2.813-3.873-4.612-2.658-6.947
			c0.39-0.748,0.18-1.726-0.505-2.232c-0.678-0.499-1.63-0.463-2.229,0.128c-8.065,7.918-3.787,13.485-0.663,17.272
			c1.863,2.258,3.032,3.917,2.854,5.917h5.41C274.185,257,274.853,255.208,274.527,253.059z"/>
	</g>
	<g>
		<path fill="#FFFFFF" d="M322.495,300.425c1.904,0,3.505-1.542,3.505-3.452v-25.86c0-1.904-1.601-3.445-3.505-3.445
			c-1.9,0-3.495,1.541-3.495,3.445v25.86C319,298.883,320.595,300.425,322.495,300.425z"/>
		<path fill="#19B3B8" d="M322.599,311h25.862c6.093,0,11.134-4.661,11.945-10.543c8.283-0.803,15.517-7.86,15.517-16.353
			c0-8.453-6.922-15.479-13.922-16.343v-5.267c0-1.91-3.012-2.494-4.915-2.494h-8.96h-5.206h-10.308h-5.205H313.98
			c-1.909,0-2.98,0.584-2.98,2.494v36.201C311,305.358,315.945,311,322.599,311z M362,274.728c3,0.818,7.76,4.674,7.76,9.318
			c0,4.636-4.76,8.502-7.76,9.319V274.728z M319,271.113c0-1.904,1.595-3.445,3.495-3.445c1.904,0,3.505,1.541,3.505,3.445v25.86
			c0,1.91-1.601,3.452-3.505,3.452c-1.9,0-3.495-1.542-3.495-3.452V271.113z"/>
		<path fill="#FFFFFF" d="M336.234,253.059c0.421-2.806,2.409-5.234,4.162-7.197c2.509-2.813,3.873-4.612,2.657-6.947
			c-0.389-0.748-0.178-1.726,0.507-2.232c0.678-0.499,1.629-0.463,2.229,0.128c8.064,7.918,3.787,13.485,0.662,17.272
			c-1.863,2.258-3.033,3.917-2.854,5.917h-5.411C336.578,257,335.909,255.208,336.234,253.059z"/>
		<path fill="#FFFFFF" d="M320.721,253.059c0.421-2.806,2.408-5.234,4.162-7.197c2.508-2.813,3.872-4.612,2.657-6.947
			c-0.39-0.748-0.18-1.726,0.506-2.232c0.677-0.499,1.628-0.463,2.228,0.128c8.056,7.918,3.787,13.485,0.663,17.272
			c-1.864,2.258-3.032,3.917-2.854,5.917h-5.409C321.063,257,320.396,255.208,320.721,253.059z"/>
	</g>
</g>
</svg>
