<?xml version="1.0" encoding="utf-8"?>
<!-- Generator: Adobe Illustrator 16.0.0, SVG Export Plug-In . SVG Version: 6.00 Build 0)  -->
<!DOCTYPE svg PUBLIC "-//W3C//DTD SVG 1.1//EN" "http://www.w3.org/Graphics/SVG/1.1/DTD/svg11.dtd">
<svg version="1.1" id="Layer_1" xmlns="http://www.w3.org/2000/svg" xmlns:xlink="http://www.w3.org/1999/xlink" x="0px" y="0px"
	 width="1280px" height="800px" viewBox="0 0 1280 800" enable-background="new 0 0 1280 800" xml:space="preserve">
<path fill="#22B573" d="M677.992,424.881l0.199,1.479l-2.217,0.459l-0.299,3.142h2.656l3.535-0.345l1.818-2.157l-1.938-0.757
	l-1.059-1.216l-1.598-2.577l-0.76-3.638l-2.996,0.599l-0.84,1.299v1.438l1.439,0.977L677.992,424.881z M677.992,424.881"/>
<path fill="#22B573" d="M675.455,426.104l0.16-1.979l-1.758-0.762l-2.457,0.562l-1.818,2.937v1.875h2.117L675.455,426.104z
	 M675.455,426.104"/>
<path fill="#22B573" d="M624.935,434.47"/>
<rect fill="#F6BC99" width="1280" height="800"/>
<path fill="none" d="M2138.672,17.968c0-8.78-6.672-16.072-14.672-17.619v35.238C2132,34.04,2138.672,26.733,2138.672,17.968z"/>
<g>
	<g>
		<path fill="#FFFFFF" d="M612.994,588.957c2.703,0,5.006-2.193,5.006-4.91v-36.785c0-2.708-2.303-4.9-5.006-4.9
			c-2.705,0-4.994,2.192-4.994,4.9v36.785C608,586.764,610.289,588.957,612.994,588.957z"/>
		<path fill="#F3A298" d="M612.869,604h36.786c8.668,0,15.84-6.63,16.991-14.997c11.781-1.142,21.612-11.181,21.612-23.261
			c0-12.025-9.259-22.02-20.259-23.248v-7.493c0-2.717-3.371-4.001-6.075-4.001h-12.746h-7.405h-14.661h-7.406h-19.097
			c-2.716,0-3.609,1.284-3.609,4.001v51.495C597,595.974,603.402,604,612.869,604z M668,552.403c6,1.164,11.039,6.648,11.039,13.255
			c0,6.596-5.039,12.094-11.039,13.257V552.403z M608,547.262c0-2.708,2.289-4.9,4.994-4.9c2.703,0,5.006,2.192,5.006,4.9v36.785
			c0,2.717-2.303,4.91-5.006,4.91c-2.705,0-4.994-2.193-4.994-4.91V547.262z"/>
		<path fill="#FFFFFF" d="M630.259,521.353c-0.598-3.991-3.425-7.332-5.919-10.124c-3.569-4.002-5.509-6.504-3.779-9.826
			c0.553-1.062,0.254-2.426-0.721-3.146c-0.964-0.71-2.316-0.645-3.17,0.197c-11.472,11.263-5.387,18.961-0.941,24.349
			c2.649,3.212,4.313,5.197,4.059,8.197h7.696C629.772,527,630.722,524.411,630.259,521.353z"/>
		<path fill="#FFFFFF" d="M652.326,521.353c-0.598-3.991-3.425-7.332-5.918-10.124c-3.569-4.002-5.509-6.504-3.781-9.826
			c0.556-1.062,0.257-2.426-0.719-3.146c-0.965-0.71-2.317-0.645-3.171,0.197c-11.46,11.263-5.387,18.961-0.941,24.349
			c2.651,3.212,4.312,5.197,4.061,8.197h7.694C651.84,527,652.79,524.411,652.326,521.353z"/>
	</g>
	<g>
		<path fill="#FFFFFF" d="M538.717,454.869c-0.599-3.991-3.425-7.073-5.92-9.865c-3.567-4.001-5.507-6.373-3.779-9.698
			c0.555-1.063,0.257-2.362-0.719-3.083c-0.965-0.709-2.317-0.607-3.17,0.236c-11.461,11.262-5.388,18.456-0.943,23.843
			c2.651,3.212,4.313,5.698,4.06,7.698h7.696C538.23,461,539.18,457.928,538.717,454.869z"/>
		<path fill="#8EAEB2" d="M479.622,436.183c0.083-0.572,0.164-1.125,0.164-1.719c0-6.822-5.51-12.359-12.329-12.359
			s-12.357,5.537-12.357,12.359c0,0.819,0.079,1.635,0.245,2.396c-20.949,5.294-29.319,21.577-29.319,21.577h85.758
			C511.783,458.438,502.672,440.622,479.622,436.183L479.622,436.183z M479.622,436.183"/>
		<g>
			<defs>
				<rect id="SVGID_1_" x="382.869" y="422.104" width="167.594" height="181.56"/>
			</defs>
			<clipPath id="SVGID_2_">
				<use xlink:href="#SVGID_1_"  overflow="visible"/>
			</clipPath>
			<path clip-path="url(#SVGID_2_)" fill="#F3A298" d="M464.78,550.8h14.488v-4.392H464.78v-8.429h14.488v-4.392H464.78v-9.493
				h14.488v-4.392H464.78v-8.619h14.488v-4.365H464.78v-7.583h14.488v-4.363H464.78v-9.603h-4.853v75.232h4.853V550.8z
				 M464.78,550.8"/>
			<path clip-path="url(#SVGID_2_)" fill="#8EAEB2" d="M482.213,577.123h48.446c3.873-49.891-5.32-82.351-5.32-82.351
				s18.904-12.111,21.796-30.524H423.134c0,0-1.998,3.632-4.59,11.262c-14.587,4.533-35.021,16.885-35.647,40.757
				c-0.655,24.632,15.466,41.652,23.7,48.718c-0.02,3.928-0.02,7.938,0.059,12.166h46.018v5.319h-51.119v18.411h134.67V582.47
				h-54.011V577.123z M398.394,516.676c0.3-11.215,7.743-18.086,15.026-22.177c-2.618,12.115-5.02,28.123-6.138,48.554
				C402.427,536.425,398.121,527.479,398.394,516.676L398.394,516.676z M468.193,472.158c13.721,0,24.85,21.936,24.85,48.936
				c0,27.034-11.129,48.938-24.85,48.938c-13.748,0-24.877-21.903-24.877-48.938C443.316,494.094,454.445,472.158,468.193,472.158
				L468.193,472.158z M468.193,472.158"/>
		</g>
		<path fill="#FFFFFF" d="M532.204,424.951c0.598-3.99,3.424-7.161,5.918-9.954c3.568-4.001,5.509-6.419,3.78-9.741
			c-0.555-1.063-0.256-2.384,0.721-3.104c0.963-0.71,2.315-0.621,3.169,0.222c11.461,11.263,5.387,18.631,0.942,24.019
			c-2.651,3.211-3.809,4.558-4.06,7.867c-0.25,3.312-5.301,3.483-7.695,0C532.585,430.777,531.741,428.01,532.204,424.951z"/>
	</g>
	<g>
		<path fill="#FFFFFF" d="M772.994,588.957c2.704,0,5.006-2.193,5.006-4.91v-36.785c0-2.708-2.302-4.9-5.006-4.9
			c-2.706,0-4.994,2.192-4.994,4.9v36.785C768,586.764,770.288,588.957,772.994,588.957z"/>
		<path fill="#99DDE0" d="M790,586.496v-51.495c0-2.717,2.115-4.001-0.599-4.001h-19.099h-7.403h-14.664h-7.403h-12.747
			c-2.705,0-9.085,1.284-9.085,4.001v7.493c-12,1.229-18.755,11.048-18.755,23.075c0,12.08,10.376,22.292,22.159,23.434
			c1.152,8.367,9.282,14.997,17.95,14.997h36.788C786.607,604,790,595.974,790,586.496z M719,578.915
			c-6-1.163-11.039-6.661-11.039-13.257c0-6.606,5.039-12.091,11.039-13.255V578.915z M778,584.047c0,2.717-2.29,4.91-4.994,4.91
			c-2.705,0-5.006-2.193-5.006-4.91v-36.785c0-2.708,2.301-4.9,5.006-4.9c2.704,0,4.994,2.192,4.994,4.9V584.047z"/>
		<path fill="#FFFFFF" d="M775.717,521.353c-0.598-3.991-3.424-7.332-5.918-10.124c-3.568-4.002-5.509-6.504-3.779-9.826
			c0.555-1.062,0.254-2.426-0.722-3.146c-0.964-0.71-2.314-0.645-3.169,0.197c-11.461,11.263-5.387,18.961-0.941,24.349
			c2.65,3.212,4.312,5.197,4.059,8.197h7.695C775.23,527,776.18,524.411,775.717,521.353z"/>
		<path fill="#FFFFFF" d="M753.649,521.353c-0.599-3.991-3.425-7.332-5.918-10.124c-3.569-4.002-5.509-6.504-3.781-9.826
			c0.555-1.062,0.256-2.426-0.719-3.146c-0.965-0.71-2.318-0.645-3.171,0.197c-11.472,11.263-5.387,18.961-0.942,24.349
			c2.65,3.212,4.313,5.197,4.061,8.197h7.695C753.163,527,754.113,524.411,753.649,521.353z"/>
	</g>
	<g>
		<path fill="#FFFFFF" d="M821.992,588.957c2.709,0,5.008-2.193,5.008-4.91v-36.785c0-2.708-2.299-4.9-5.008-4.9
			c-2.703,0-4.992,2.192-4.992,4.9v36.785C817,586.764,819.289,588.957,821.992,588.957z"/>
		<path fill="#19B3B8" d="M822.03,604h36.788c8.668,0,15.838-6.63,16.991-14.997c11.782-1.142,21.533-11.181,21.533-23.261
			c0-12.025-9.343-22.02-20.343-23.248v-7.493c0-2.717-3.207-4.001-5.912-4.001h-12.746h-7.404h-14.664h-7.403h-19.099
			c-2.715,0-4.771,1.284-4.771,4.001v51.495C805,595.974,812.565,604,822.03,604z M877,552.403c6,1.164,11.038,6.648,11.038,13.255
			c0,6.596-5.038,12.094-11.038,13.257V552.403z M817,547.262c0-2.708,2.289-4.9,4.992-4.9c2.709,0,5.008,2.192,5.008,4.9v36.785
			c0,2.717-2.299,4.91-5.008,4.91c-2.703,0-4.992-2.193-4.992-4.91V547.262z"/>
		<path fill="#FFFFFF" d="M841.427,521.353c0.599-3.991,3.427-7.332,5.92-10.124c3.569-4.002,5.509-6.504,3.779-9.826
			c-0.554-1.062-0.254-2.426,0.721-3.146c0.965-0.71,2.317-0.645,3.17,0.197c11.472,11.263,5.387,18.961,0.942,24.349
			c-2.65,3.212-4.314,5.197-4.06,8.197h-7.696C841.916,527,840.965,524.411,841.427,521.353z"/>
		<path fill="#FFFFFF" d="M819.359,521.353c0.599-3.991,3.425-7.332,5.92-10.124c3.567-4.002,5.508-6.504,3.779-9.826
			c-0.555-1.062-0.256-2.426,0.721-3.146c0.963-0.71,2.315-0.645,3.169,0.197c11.46,11.263,5.387,18.961,0.942,24.349
			c-2.651,3.212-4.312,5.197-4.061,8.197h-7.693C819.847,527,818.896,524.411,819.359,521.353z"/>
	</g>
</g>
</svg>
