<?xml version="1.0" encoding="utf-8"?>
<!-- Generator: Adobe Illustrator 16.0.0, SVG Export Plug-In . SVG Version: 6.00 Build 0)  -->
<!DOCTYPE svg PUBLIC "-//W3C//DTD SVG 1.1//EN" "http://www.w3.org/Graphics/SVG/1.1/DTD/svg11.dtd">
<svg version="1.1" id="Layer_1" xmlns="http://www.w3.org/2000/svg" xmlns:xlink="http://www.w3.org/1999/xlink" x="0px" y="0px"
	 width="1280px" height="800px" viewBox="0 0 1280 800" enable-background="new 0 0 1280 800" xml:space="preserve">
<path fill="#22B573" d="M677.991,424.881l0.199,1.479l-2.217,0.459l-0.299,3.142h2.655l3.535-0.345l1.818-2.157l-1.938-0.757
	l-1.059-1.216l-1.599-2.577l-0.76-3.639l-2.996,0.6l-0.84,1.299v1.438l1.439,0.977L677.991,424.881z"/>
<path fill="#22B573" d="M675.455,426.104l0.159-1.979l-1.758-0.762l-2.457,0.562l-1.817,2.938v1.875h2.116L675.455,426.104z"/>
<path fill="#22B573" d="M624.935,434.47"/>
<rect x="0" fill="#F6BC99" width="1280" height="800"/>
<g opacity="0.3">
	<g>
		<path fill="#8CC63F" d="M227.275,281.708c1.114-0.098,2.085-1.074,2.174-2.176c0,0,0.711-8.604-5.286-14.601
			c-6.016-6.005-14.601-5.288-14.601-5.288c-1.104,0.088-2.077,1.064-2.167,2.169c0,0-0.729,8.614,5.279,14.607
			C218.67,282.416,227.275,281.708,227.275,281.708L227.275,281.708z"/>
		<path fill="none" d="M189.593,257.284v55.881c0-21.06,18.111-33.171,37.231-24.525c0.006-0.018-0.013-0.033-0.007-0.051
			l-0.954-0.847l0.935,0.847c6.175-16.002,11.407-23.528,11.407-23.528c0.669-0.888,2.036-1.225,3.041-0.759l7.099,3.316
			c1.004,0.473,1.102,1.399,0.216,2.07c0,0-5.878,4.427-8.88,7.877c-3.531,4.048-6.328,8.271-8.102,11.224l1.229-0.681l-1.229,0.681
			c-0.008,0.012-0.016,0.025-0.022,0.037c21.227-9.364,37.561,3.092,37.561,24.339c0,21.992-15.66,55.744-39.771,45.316
			c-22.881,10.094-39.754-23.324-39.754-45.316v47.119h81v-103H189.593z"/>
		<path fill="#E20613" d="M229.294,358.481c24.109,10.428,39.823-23.324,39.823-45.316c0-21.247-16.333-33.703-37.561-24.339
			c0.007-0.012,0.016-0.025,0.022-0.037l-2.825,1.568l-1.963-1.769c-0.007,0.019-0.013,0.033-0.02,0.051
			c-19.119-8.646-37.284,3.466-37.284,24.525C189.488,335.157,206.411,368.575,229.294,358.481z"/>
		<path fill="#754C24" d="M231.579,288.789c1.772-2.952,4.569-7.175,8.101-11.224c3.003-3.45,8.879-7.877,8.879-7.877
			c0.887-0.671,0.789-1.597-0.216-2.07l-7.1-3.316c-1.004-0.465-2.373-0.129-3.042,0.759c0,0-5.235,7.525-11.411,23.528l1.963,1.769
			L231.579,288.789z"/>
	</g>
	<g>
		<path fill="none" d="M183.96,168.284c-0.015,0-0.027,0-0.042,0c5.926,0,11.338,2.055,15.574,5.466
			C195.273,170.327,189.883,168.284,183.96,168.284z"/>
		<path fill="none" d="M186.014,216.847c13.333-1.269,22.586-11.743,22.586-24.647c0-0.029-0.003-0.059-0.003-0.089
			C208.573,204.992,199.327,215.581,186.014,216.847z"/>
		<path fill="none" d="M199.641,173.048c0.108,0.089,0.213,0.183,0.321,0.274C199.854,173.231,199.749,173.137,199.641,173.048z"/>
		<path fill="none" d="M162.049,190.284h0.022c0.001,0,0.002,0,0.003,0c0.478-5,2.112-7.979,4.632-11.146l11.153,11.146h0.021h0.355
			h3.198c2.806,0,4.158,1.501,4.158,4.301v1.039v2.521l11.175,11.175c-3.133,2.524-6.175,4.155-11.175,4.67v0.52v2.337
			c14-1.266,22.77-11.855,22.793-24.736c-0.025-7.562-3.248-14.282-8.53-18.789c-0.108-0.091-0.159-0.185-0.268-0.274
			c-0.049-0.039-0.071-0.075-0.121-0.116c-4.237-3.412-9.638-5.341-15.562-5.357c-12.878,0.02-23.45,8.709-24.723,22.709h0.167
			H162.049z M201.213,205.466l-11.176-11.182h15.804C205.374,199.284,203.738,202.333,201.213,205.466z M205.842,190.284h-15.804
			l11.176-11.168C203.738,182.29,205.374,185.284,205.842,190.284z M185.593,170.179c5,0.467,8.042,2.109,11.175,4.636
			l-11.175,11.168V170.179z M181.593,170.179v15.804l-11.177-11.168C173.551,172.335,176.593,170.646,181.593,170.179z"/>
		<polygon fill="none" points="144.919,194.284 149.781,218.284 151.573,218.284 178.593,218.284 178.593,329.284 132.593,329.284 
			132.593,218.284 139.352,218.284 141.573,218.284 142.072,218.284 137.249,194.284 137.13,194.284 134.907,194.284 
			129.593,194.284 129.593,331.284 181.593,331.284 181.593,216.847 181.593,194.284 148.24,194.284 		"/>
		<path fill="#F3A298" d="M143.796,190.284h0.136l-2.427-12.425c-0.607-4.909-4.308-11.976-12.484-11.269
			c-7.527,0.649-25.768,2.565-26.558,2.658l0.836,7.478c0.192-0.048,18.936-2.128,26.37-2.742c3.507-0.321,4.168,3.752,4.308,4.863
			l2.235,11.437h0.004H143.796z"/>
		<g>
			<path fill="#F4EB9A" d="M184.593,170.179v15.804l11.175-11.168C192.635,172.288,189.593,170.646,184.593,170.179z"/>
			<path fill="#F4EB9A" d="M180.593,170.179c-5,0.467-8.042,2.157-11.175,4.636l11.175,11.168V170.179z"/>
			<path fill="#F4EB9A" d="M205.842,191.284c-0.467-5-2.104-7.996-4.628-11.169l-11.177,11.169H205.842z"/>
			<path fill="#F4EB9A" d="M201.213,206.466c2.524-3.133,4.161-6.182,4.628-11.182h-15.804L201.213,206.466z"/>
			<path fill="#F4EB9A" d="M162.074,191.284h15.784l-11.152-11.148C164.187,183.305,162.552,186.284,162.074,191.284z"/>
			<path fill="#F4EB9A" d="M184.593,198.145v15.845c5-0.515,8.042-2.146,11.175-4.67L184.593,198.145z"/>
		</g>
		<path fill="#EC6A19" d="M183.96,162.521c-15.656,0-28.509,11.763-29.787,27.763h5.007h0.002c1.273-14,11.763-22,24.661-22
			c0.024,0,0.05,0,0.076,0c0.014,0,0.026,0,0.042,0c5.923,0,11.312,1.634,15.533,5.057c0.05,0.04,0.101-0.127,0.147-0.088
			c0.109,0.089,0.213,0.08,0.321,0.171c5.294,4.487,8.638,11.121,8.638,18.688c0,0.019-0.003,0.007-0.003,0.025
			c0,0.03-0.208,0.048-0.208,0.076c0,12.905-8.796,23.366-22.796,24.634v5.044c16-1.302,27.846-13.968,27.846-29.637
			C213.439,175.75,200.465,162.521,183.96,162.521z"/>
		<polygon fill="#19B3B8" points="142.072,218.284 141.573,218.284 139.352,218.284 132.593,218.284 132.593,329.284 
			178.593,329.284 178.593,218.284 151.573,218.284 149.781,218.284 149.351,218.284 		"/>
		<polygon fill="#F3A298" points="149.351,218.284 149.781,218.284 144.919,194.284 144.906,194.284 137.249,194.284 
			142.072,218.284 		"/>
		<path fill="#8EAEB2" d="M185.593,214.51v-0.52v-15.845v-2.521v-1.039c0-2.799-1.353-4.301-4.158-4.301h-3.198h-0.355h-0.021
			h-15.784c-0.001,0-0.002,0-0.003,0h-0.022h-2.699h-0.167h-0.003h-5.007h-0.001h-0.024h-10.21h-0.005h-0.136h-7.58h-0.004h-6.863
			c-2.806,0-5.756,1.548-5.756,4.301v147.752c0,2.806,3.002,5.947,5.756,5.947h52.085c2.806,0,4.158-3.143,4.158-5.947V227.843
			v-5.952v-5.044L185.593,214.51L185.593,214.51z M181.593,216.847v114.437h-52v-137h5.314h2.223h0.119h7.657h0.013h3.32h33.354
			V216.847z"/>
		<path d="M208.597,192.111c0-0.018,0.003-0.032,0.003-0.05c0-7.566-3.344-14.252-8.638-18.739
			C205.242,177.828,208.571,184.548,208.597,192.111z"/>
		<path d="M199.492,172.932c0.049,0.041,0.101,0.077,0.147,0.116C199.593,173.009,199.541,172.971,199.492,172.932z"/>
		<path d="M183.918,168.284c-0.025,0-0.051,0-0.076,0c-12.897,0-23.388,9.272-24.66,22.604
			C160.454,177.572,171.039,168.284,183.918,168.284z"/>
	</g>
	<g>
		<path fill="#8CC63F" d="M42.148,313.096c0,0-4.962,3.291-4.732,5.131c0.23,1.839,4.767,1.645,5.917,3.945
			c1.15,2.3-3.254,10.369-4.174,12.439c-0.921,2.07-2.777,10.539,5.965,6.627c8.743-3.91,8.319-2.955,8.319-2.955h100.715
			c0,0,5.062,3.694,9.663,3.005c4.603-0.689,3.221-7.471,0-8.392c-3.221-0.92-5.062-5.007-2.531-5.118
			c2.531-0.112,9.894-2.939,6.442-5.699c-3.451-2.761-7.14-10.796-13.693-10.796c-6.552,0-100.188,0-100.188,0L42.148,313.096z"/>
		<g>
			<path fill="#A67C52" d="M103.738,276.934c-27.775,0-50.295,15.462-50.295,34.544h100.596
				C154.038,292.396,131.515,276.934,103.738,276.934L103.738,276.934z M94.606,283.813c-1.456,0-2.641-0.537-2.641-1.202
				c0-0.662,1.185-1.203,2.641-1.203c1.462,0,2.648,0.541,2.648,1.203C97.254,283.276,96.068,283.813,94.606,283.813L94.606,283.813
				z M108.158,291.754c-1.462,0-2.646-0.538-2.646-1.203c0-0.66,1.185-1.196,2.646-1.196c1.456,0,2.642,0.536,2.642,1.196
				C110.8,291.217,109.615,291.754,108.158,291.754L108.158,291.754z M115.275,282.611c-1.462,0-2.646-0.538-2.646-1.197
				c0-0.665,1.185-1.203,2.646-1.203c1.456,0,2.641,0.538,2.641,1.203C117.914,282.074,116.731,282.611,115.275,282.611
				L115.275,282.611z"/>
			<g>
				<g>
					<defs>
						<rect id="SVGID_1_" x="46.399" y="276.934" width="115.897" height="90.545"/>
					</defs>
					<clipPath id="SVGID_2_">
						<use xlink:href="#SVGID_1_"  overflow="visible"/>
					</clipPath>
					<path clip-path="url(#SVGID_2_)" fill="#A67C52" d="M154.038,338.852H53.443c0,19.077-4.769,27.659,50.295,27.659
						C160.388,366.518,154.038,357.936,154.038,338.852L154.038,338.852z"/>
				</g>
				<g>
					<defs>
						<rect id="SVGID_3_" x="46.399" y="276.934" width="115.897" height="90.545"/>
					</defs>
					<clipPath id="SVGID_4_">
						<use xlink:href="#SVGID_3_"  overflow="visible"/>
					</clipPath>
					<path clip-path="url(#SVGID_4_)" fill="#F3A298" d="M153.65,318.406c-16.918,6.895-34.639-5.854-51.669-0.102
						c-4.438,1.502-8.464,3.916-12.991,5.206c-4.734,1.343-9.51-0.66-13.783-2.522c-8.954-3.902-17.23-5.794-25.69-0.266
						c-3.708,2.423-3.809,6.043-1.881,8.796h111.119C163.787,325.436,160.488,315.623,153.65,318.406L153.65,318.406z"/>
				</g>
			</g>
		</g>
	</g>
</g>
<rect x="0" fill="none" stroke="#FFFFFF" stroke-miterlimit="10" width="1280" height="800"/>
<rect x="12.5" y="150.021" fill="none" stroke="#FFFFFF" stroke-miterlimit="10" width="278.5" height="237.479"/>
</svg>
