<?xml version="1.0" encoding="utf-8"?>
<!-- Generator: Adobe Illustrator 16.0.0, SVG Export Plug-In . SVG Version: 6.00 Build 0)  -->
<!DOCTYPE svg PUBLIC "-//W3C//DTD SVG 1.1//EN" "http://www.w3.org/Graphics/SVG/1.1/DTD/svg11.dtd">
<svg version="1.1" id="Layer_1" xmlns="http://www.w3.org/2000/svg" xmlns:xlink="http://www.w3.org/1999/xlink" x="0px" y="0px"
	 width="1280px" height="800px" viewBox="0 0 1280 800" enable-background="new 0 0 1280 800" xml:space="preserve">
<path fill="#22B573" d="M677.992,424.881l0.199,1.479l-2.217,0.459l-0.299,3.142h2.656l3.535-0.345l1.818-2.157l-1.938-0.757
	l-1.059-1.216l-1.598-2.577l-0.76-3.638l-2.996,0.599l-0.84,1.299v1.438l1.439,0.977L677.992,424.881z M677.992,424.881"/>
<path fill="#22B573" d="M675.455,426.104l0.16-1.979l-1.758-0.762l-2.457,0.562l-1.818,2.937v1.875h2.117L675.455,426.104z
	 M675.455,426.104"/>
<path fill="#22B573" d="M624.935,434.47"/>
<rect fill="#F6BC99" width="1280" height="800"/>
<g>
	<path fill="#004853" d="M124.616,413.458h44.708v44.111h-12.52v24.441h81.67v-24.441h-12.519v-67.957
		c0-9.14-3.179-16.792-9.539-22.951c-6.357-6.159-13.907-9.239-22.651-9.239h-69.15v-11.921h-24.442v79.878h24.442V413.458z
		 M124.616,413.458"/>
	<path fill="#007E80" d="M169.325,510.625v67.956c0,9.141,3.179,16.789,9.539,22.952c6.36,6.158,13.91,9.238,22.651,9.238h69.15
		v11.922h24.442v-79.879h-24.442v11.923h-44.709v-44.112h12.519v-23.846h-81.669v23.846H169.325z M169.325,510.625"/>
	<path fill="#99DDE0" d="M463.291,682.602c0-3.577-1.889-9.239-5.665-16.99c-3.775-7.748-7.55-14.603-11.326-20.564l-5.664-8.94
		c-14.702,22.65-22.055,38.149-22.055,46.495c0,5.962,2.186,11.128,6.558,15.5c4.372,4.372,9.638,6.558,15.797,6.558
		s11.424-2.186,15.797-6.558C461.105,693.729,463.291,688.563,463.291,682.602L463.291,682.602z M463.291,682.602"/>
	<g>
		<path fill="#19B3B8" d="M453.725,602.469v-30.301c0-2.367-1.944-4.31-4.332-4.31h-41.901
			c-3.931-6.594-10.206-11.602-17.686-13.841c1.986-1.099,3.339-3.212,3.339-5.642c0-3.593-2.916-6.487-6.488-6.487h-2.176v-8.664
			h19.482c3.592,0,6.487-2.895,6.487-6.486c0-3.591-2.895-6.488-6.487-6.488h-19.482c0-2.387-1.437-4.33-4.31-4.33
			c-2.896,0-4.333,1.943-4.333,4.33h-19.481c-3.572,0-6.487,2.897-6.487,6.488c0,3.592,2.916,6.486,6.487,6.486h19.481v8.664h-2.177
			c-3.57,0-6.486,2.895-6.486,6.487c0,2.661,1.605,4.923,3.888,5.937c-5.367,1.796-10.079,5.009-13.693,9.213h-33.47l-0.044-20.711
			h-24.442v79.879h24.442l0.044-24.556h29.54c5.198,9.867,15.531,16.587,27.448,16.587c15.15,0,27.745-10.862,30.449-25.229h12.108
			c2.366,0,4.31,1.942,4.31,4.309v8.664c-2.366,0-4.31,1.944-4.31,4.331v8.642c0,2.389,1.944,4.332,4.31,4.332h25.969
			c2.388,0,4.332-1.943,4.332-4.332V606.8C458.057,604.413,456.113,602.469,453.725,602.469L453.725,602.469z M453.725,602.469"/>
	</g>
</g>
</svg>
