<?xml version="1.0" encoding="utf-8"?>
<!-- Generator: Adobe Illustrator 16.0.0, SVG Export Plug-In . SVG Version: 6.00 Build 0)  -->
<!DOCTYPE svg PUBLIC "-//W3C//DTD SVG 1.1//EN" "http://www.w3.org/Graphics/SVG/1.1/DTD/svg11.dtd">
<svg version="1.1" id="Layer_1" xmlns="http://www.w3.org/2000/svg" xmlns:xlink="http://www.w3.org/1999/xlink" x="0px" y="0px"
	 width="1280px" height="800px" viewBox="0 0 1280 800" enable-background="new 0 0 1280 800" xml:space="preserve">
<path fill="#22B573" d="M677.992,424.881l0.199,1.479l-2.217,0.459l-0.299,3.142h2.656l3.535-0.345l1.818-2.157l-1.938-0.757
	l-1.059-1.216l-1.598-2.577l-0.76-3.638l-2.996,0.599l-0.84,1.299v1.438l1.439,0.977L677.992,424.881z M677.992,424.881"/>
<path fill="#22B573" d="M675.455,426.104l0.16-1.979l-1.758-0.762l-2.457,0.562l-1.818,2.937v1.875h2.117L675.455,426.104z
	 M675.455,426.104"/>
<path fill="#22B573" d="M624.935,434.47"/>
<rect fill="#F6BC99" width="1280" height="800"/>
<g opacity="0.3">
	<path fill="#004853" d="M48.818,197.494h27.75v27.379h-7.771v15.171h50.691v-15.171h-7.771v-42.179
		c0-5.673-1.973-10.422-5.92-14.245c-3.945-3.823-8.632-5.735-14.059-5.735h-42.92v-7.399h-15.17v49.579h15.17V197.494z
		 M48.818,197.494"/>
	<path fill="#007E80" d="M76.567,257.804v42.178c0,5.674,1.973,10.421,5.92,14.246c3.947,3.823,8.634,5.734,14.06,5.734h42.919
		v7.399h15.171v-49.579h-15.171v7.4h-27.75v-27.379h7.77v-14.801h-50.69v14.801H76.567z M76.567,257.804"/>
	<path fill="#99DDE0" d="M259.026,364.546c0-2.221-1.173-5.735-3.516-10.546c-2.343-4.809-4.686-9.062-7.029-12.764l-3.516-5.549
		c-9.125,14.059-13.689,23.679-13.689,28.859c0,3.7,1.357,6.906,4.07,9.62s5.982,4.07,9.805,4.07c3.823,0,7.09-1.356,9.804-4.07
		C257.669,371.452,259.026,368.246,259.026,364.546L259.026,364.546z M259.026,364.546"/>
	<g>
		<path fill="#19B3B8" d="M253.089,314.809v-18.807c0-1.469-1.207-2.674-2.689-2.674h-26.007c-2.44-4.093-6.335-7.201-10.978-8.591
			c1.233-0.682,2.072-1.994,2.072-3.501c0-2.23-1.81-4.026-4.027-4.026h-1.35v-5.378h12.092c2.229,0,4.026-1.797,4.026-4.026
			c0-2.229-1.796-4.027-4.026-4.027h-12.092c0-1.481-0.892-2.688-2.675-2.688c-1.797,0-2.689,1.206-2.689,2.688h-12.091
			c-2.217,0-4.026,1.798-4.026,4.027c0,2.229,1.81,4.026,4.026,4.026h12.091v5.378h-1.351c-2.215,0-4.025,1.796-4.025,4.026
			c0,1.652,0.997,3.055,2.413,3.684c-3.332,1.115-6.256,3.109-8.499,5.718H172.51l-0.027-12.854h-15.17v49.579h15.17l0.027-15.24
			h18.335c3.227,6.124,9.64,10.294,17.036,10.294c9.403,0,17.221-6.742,18.899-15.659h7.515c1.469,0,2.675,1.207,2.675,2.674v5.378
			c-1.469,0-2.675,1.207-2.675,2.688v5.364c0,1.483,1.207,2.689,2.675,2.689h16.119c1.482,0,2.688-1.207,2.688-2.689v-5.364
			C255.777,316.016,254.571,314.809,253.089,314.809L253.089,314.809z M253.089,314.809"/>
	</g>
</g>
<rect fill="none" stroke="#FFFFFF" stroke-miterlimit="10" width="1280" height="800"/>
</svg>
