<?xml version="1.0" encoding="utf-8"?>
<!-- Generator: Adobe Illustrator 16.0.0, SVG Export Plug-In . SVG Version: 6.00 Build 0)  -->
<!DOCTYPE svg PUBLIC "-//W3C//DTD SVG 1.1//EN" "http://www.w3.org/Graphics/SVG/1.1/DTD/svg11.dtd">
<svg version="1.1" id="Layer_1" xmlns="http://www.w3.org/2000/svg" xmlns:xlink="http://www.w3.org/1999/xlink" x="0px" y="0px"
	 width="1280px" height="800px" viewBox="0 0 1280 800" enable-background="new 0 0 1280 800" xml:space="preserve">
<path fill="#22B573" d="M677.992,424.881l0.199,1.479l-2.217,0.459l-0.299,3.142h2.656l3.535-0.345l1.818-2.157l-1.938-0.757
	l-1.059-1.216l-1.598-2.577l-0.76-3.638l-2.996,0.599l-0.84,1.299v1.438l1.439,0.977L677.992,424.881z M677.992,424.881"/>
<path fill="#22B573" d="M675.455,426.104l0.16-1.979l-1.758-0.762l-2.457,0.562l-1.818,2.937v1.875h2.117L675.455,426.104z
	 M675.455,426.104"/>
<path fill="#22B573" d="M624.935,434.47"/>
<rect fill="#F6BC99" width="1280" height="800"/>
<g opacity="0.4">
	<g>
		<defs>
			<rect id="SVGID_1_" x="16.247" y="273.769" width="279.221" height="91.202"/>
		</defs>
		<clipPath id="SVGID_2_">
			<use xlink:href="#SVGID_1_"  overflow="visible"/>
		</clipPath>
		<path clip-path="url(#SVGID_2_)" fill="#19B3B8" d="M293.431,305.514c0.692,0.541,1.138,0.89-0.01-0.01
			c-2.671-2.083-1.082-0.844-0.017-0.011c-7.492-5.83-33.133-8.219-46.91-3.131c-5.752,2.123-7.772,4.878-11.428,7.374
			c-4.315,2.941-18.016,5.78-28.086,4.137c6.627-1.537,13.068-2.56,18.088-4.747c4.914-2.141,8.876-5.392,4.116-7.896
			c-4.026-2.116-13.088-3.2-20.441-2.666c-8.483,0.613-11.534,2.9-13.823,5.342c-2.742,2.919-5.789,4.366-15.836,3.883
			c-6.754-0.325-18.681-1.645-18.128-4.426c0.565-2.885,6.886-5.663,11.471-8.034c5.496-2.846,11.78-5.488,13.816-8.857
			c3.657-6.059-5.489-11.777-25.421-12.62c-19.546-0.824-30.788,4.493-28.661,10.401c1.041,2.9,5.832,5.262,7.955,8.037
			c2.638,3.447,0.955,7.053-1.46,10.457c-1.797,2.517-7.054,5.232-15.218,6.019c-8.963,0.866-13.375-1.689-14.479-4.079
			c-1.745-3.786-7.159-7.416-20.906-6.364c-8.298,0.635-14.479,2.695-16.681,5.362c-2.465,2.989,2.013,5.411,7.662,7.649
			c2.874,1.141,10.546,3.417,9.741,5.1c-1.354,2.837-18.684-0.519-21.482-1.204c-7.665-1.878-15.397-3.546-25.528-3.153
			c-9.365,0.364-18.258,2.591-22.517,5.291c-9.205,5.825,4.188,12.149,20.934,14.423c18.753,2.545,35.412-1.575,54.415-1.575
			c3.733,0,15.417,0.099,13.454,2.222c-2.585,2.795-12.27,4.193-19.925,5.127c-7.955,0.969-15.557,2.148-19.22,4.826
			c-3.676,2.689-1.032,5.757,4.983,7.837c11.598,4.016,32.142,5.34,44.511,0.95c5.53-1.963,7.779-4.469,10.267-6.938
			c0.643-0.637,2.09-2.787,5.407-2.332c5.063,0.694,0.885,2.745-0.991,3.647c-9.841,4.744-1.847,11.402,17.825,9.9
			c6.861-0.525,11.868-2.183,12.835-4.471c1.171-2.758-3.709-6.368,6.132-7.995c8.001-1.32,6.827,4.062,6.521,5.299
			c-0.789,3.194-0.379,6.433,2.701,9.501c5.826,5.809,26.073,9.713,41.993,4.922c14.03-4.224,12.859-11.316-2.006-15.099
			c-6.471-1.65-34.87-5.466-19.47-8.829c15.716-3.435,47.256,4.66,54.452-3.649c2.066-2.383-1.554-4.931-8.407-5.986
			c-4.811-0.741-10.33-0.714-15.486-0.47c-2.855,0.137-9.895,1.058-11.322-0.177c-6.102-5.291,23.019-10.083,35.289-10.37
			c11.385-0.267,22.55,0.356,31.982-2.283C295.264,313.291,298.002,309.101,293.431,305.514L293.431,305.514z M41.658,318.334
			c-6.127,0.123-10.992,0.764-11.278-0.723c-0.282-1.488,4.458-2.792,10.583-2.916c6.131-0.122,11.327,0.982,11.61,2.47
			C52.856,318.652,47.786,318.21,41.658,318.334L41.658,318.334z M93.072,301.951c-3.676,0.073-6.594,0.458-6.767-0.434
			c-0.167-0.892,2.674-1.675,6.354-1.749c3.672-0.073,6.792,0.589,6.96,1.482C99.793,302.143,96.751,301.877,93.072,301.951
			L93.072,301.951z M91.758,349.928c-4.947,0.5-10.626-0.833-12.689-2.979c-2.066-2.146,0.266-4.292,5.213-4.792
			c4.94-0.501,4.817,1.419,6.88,3.566C93.229,347.869,96.699,349.426,91.758,349.928L91.758,349.928z M157.469,280.319
			c-6.926,0-12.539,0.61-12.539-1.069c0-1.682,5.613-3.043,12.539-3.043c6.927,0,12.546,1.361,12.546,3.043
			C170.011,280.929,164.396,280.319,157.469,280.319L157.469,280.319z M201.365,355.607c2.066,2.146,5.536,3.703,0.595,4.205
			c-4.947,0.5-10.626-0.833-12.689-2.979c-2.066-2.145,0.266-4.29,5.213-4.791C199.425,351.541,199.302,353.462,201.365,355.607
			L201.365,355.607z M266,305.708c-6.913,0.138-12.402,0.864-12.722-0.814c-0.32-1.677,5.027-3.15,11.94-3.288
			c6.913-0.14,12.775,1.108,13.095,2.786C278.636,306.069,272.914,305.571,266,305.708L266,305.708z M266,305.708"/>
	</g>
	<g>
		<path fill="#EC6A19" d="M172.54,228.333c0,0,6.208,2.069,10.863,2.328c4.656,0.258,30.708,0.325,31.297-25.348
			c0.167-7.301-8.535,4.139-14.743,1.811c-6.208-2.328-13.45-9.312-15.519-7.243C182.369,201.951,172.54,228.333,172.54,228.333z"/>
		<path fill="#EC6A19" d="M86.409,270.493l15.261,10.347l-9.57,6.983l14.226,8.794l-9.958,7.501c0,0,24.443,8.018,37.893,6.466
			c13.45-1.552,44.229-6.467,38.28-29.229c-5.949-22.761-32.073-25.088-47.333-22.244
			C109.946,261.958,86.409,270.493,86.409,270.493z"/>
		<circle fill="#8EC6C6" cx="163.229" cy="201.174" r="9.312"/>
		<g>
			<defs>
				<rect id="SVGID_3_" x="43.095" y="168.399" width="173.545" height="158.925"/>
			</defs>
			<clipPath id="SVGID_4_">
				<use xlink:href="#SVGID_3_"  overflow="visible"/>
			</clipPath>
			<path clip-path="url(#SVGID_4_)" fill="#FCDBA7" d="M131.156,243.764c-49.758-2.948-60.901,24.614-84.026,5.122
				c3.632,50.657,36.192,74.899,60.994,74.899h44.507c28.123,0,45.947-15.055,45.947-39.266c0-24.243-24.211-39.797-22.535-44.539
				c0.652-1.835,2.669-4.474,4.87-7.892c1.986,0.373,4.07,0.567,5.991,0.567c3.601,0,10.554-0.567,16.762-4.443
				c8.939-5.556,12.695-15.733,12.943-20.858c0.128-2.395-0.407-4.094-1.614-5.064c-1.334-1.017-3.321-0.524-6.704,0.629
				c-2.918,1.024-6.581,2.296-9.468,1.987c-2.518-0.256-4.625-2.049-6.332-3.481c-1.518-1.304-2.732-2.36-4.315-2.36l-0.745,0.125
				c-3.1-14.992-13.751-31.664-39.231-30.756c-31.727,1.109-40.232,24.766-39.797,41.183
				C108.962,230.444,123.147,238.615,131.156,243.764L131.156,243.764z M201.302,224.461c-3.845,2.382-9.091,3.752-14.398,3.752
				c-5.925,0-9.556-1.711-9.898-2.669c0.213-0.431,2.293-3.291,3.663-5.184c1.676-2.297,3.407-4.688,4.559-6.919
				c1.552-2.949,1.773-5.47,1.925-7.298c0.182-1.952,0.244-2.262,0.962-2.542c0.373,0.28,1.024,0.803,1.494,1.208
				c2.041,1.742,4.869,4.125,8.749,4.531c3.756,0.404,8.07-1.06,11.392-2.204c0.838-0.276,1.862-0.648,2.607-0.842
				C212.604,209.061,209.527,219.335,201.302,224.461L201.302,224.461z M170.607,201.297c0,4.004-3.259,7.271-7.233,7.271
				c-4.004,0-7.263-3.267-7.263-7.271c0-3.973,3.259-7.233,7.263-7.233C167.348,194.064,170.607,197.324,170.607,201.297
				L170.607,201.297z M107.906,281.012L88.32,269.9c0,0,54.603-11.547,68.51-3.198c13.906,8.35,12.26,22.411,3.352,31.475
				c-18.1,18.375-58.483,5.556-58.483,5.556l10.864-7.511l-16.699-9.064L107.906,281.012z M95.863,287.157"/>
		</g>
	</g>
</g>
</svg>
