<?xml version="1.0" encoding="utf-8"?>
<!-- Generator: Adobe Illustrator 16.0.0, SVG Export Plug-In . SVG Version: 6.00 Build 0)  -->
<!DOCTYPE svg PUBLIC "-//W3C//DTD SVG 1.1//EN" "http://www.w3.org/Graphics/SVG/1.1/DTD/svg11.dtd">
<svg version="1.1" id="Layer_1" xmlns="http://www.w3.org/2000/svg" xmlns:xlink="http://www.w3.org/1999/xlink" x="0px" y="0px"
	 width="1280px" height="800px" viewBox="0 0 1280 800" enable-background="new 0 0 1280 800" xml:space="preserve">
<path fill="#22B573" d="M677.992,424.881l0.199,1.479l-2.217,0.459l-0.299,3.142h2.656l3.535-0.345l1.818-2.157l-1.938-0.757
	l-1.059-1.216l-1.598-2.577l-0.76-3.638l-2.996,0.599l-0.84,1.299v1.438l1.439,0.977L677.992,424.881z M677.992,424.881"/>
<path fill="#22B573" d="M675.455,426.104l0.16-1.979l-1.758-0.762l-2.457,0.562l-1.818,2.937v1.875h2.117L675.455,426.104z
	 M675.455,426.104"/>
<path fill="#22B573" d="M624.935,434.47"/>
<rect fill="#F6BC99" width="1280" height="800"/>
<g>
	<defs>
		<rect id="SVGID_1_" x="106.247" y="627.889" width="359.84" height="117.534"/>
	</defs>
	<clipPath id="SVGID_2_">
		<use xlink:href="#SVGID_1_"  overflow="visible"/>
	</clipPath>
	<path clip-path="url(#SVGID_2_)" fill="#19B3B8" d="M463.462,668.8c0.892,0.696,1.466,1.146-0.013-0.013
		c-3.443-2.686-1.394-1.088-0.021-0.015c-9.656-7.513-42.7-10.592-60.454-4.035c-7.413,2.735-10.016,6.287-14.728,9.503
		c-5.561,3.791-23.217,7.449-36.195,5.331c8.541-1.98,16.841-3.299,23.312-6.117c6.333-2.759,11.439-6.948,5.304-10.176
		c-5.188-2.727-16.867-4.124-26.343-3.436c-10.933,0.79-14.865,3.738-17.814,6.885c-3.533,3.762-7.46,5.626-20.409,5.004
		c-8.704-0.418-24.075-2.119-23.363-5.704c0.729-3.718,8.875-7.298,14.783-10.354c7.083-3.667,15.182-7.072,17.806-11.414
		c4.712-7.808-7.074-15.178-32.761-16.263c-25.189-1.062-39.676,5.79-36.937,13.403c1.341,3.738,7.515,6.782,10.251,10.357
		c3.399,4.442,1.23,9.09-1.882,13.476c-2.316,3.244-9.091,6.743-19.612,7.757c-11.55,1.115-17.236-2.177-18.66-5.257
		c-2.25-4.879-9.226-9.557-26.941-8.201c-10.694,0.818-18.66,3.473-21.498,6.91c-3.177,3.852,2.594,6.973,9.874,9.857
		c3.704,1.471,13.592,4.403,12.554,6.573c-1.746,3.656-24.079-0.669-27.684-1.552c-9.878-2.421-19.844-4.57-32.899-4.063
		c-12.069,0.469-23.53,3.339-29.019,6.818c-11.863,7.507,5.398,15.657,26.979,18.588c24.168,3.28,45.636-2.03,70.126-2.03
		c4.811,0,19.869,0.128,17.339,2.863c-3.331,3.603-15.812,5.403-25.677,6.607c-10.251,1.248-20.049,2.769-24.77,6.219
		c-4.738,3.466-1.329,7.42,6.423,10.101c14.946,5.175,41.421,6.882,57.362,1.224c7.127-2.53,10.025-5.76,13.232-8.941
		c0.828-0.821,2.693-3.592,6.967-3.006c6.526,0.895,1.141,3.537-1.277,4.7c-12.683,6.113-2.38,14.694,22.971,12.759
		c8.842-0.677,15.294-2.813,16.542-5.762c1.509-3.555-4.781-8.207,7.902-10.304c10.312-1.702,8.798,5.235,8.404,6.828
		c-1.016,4.117-0.489,8.291,3.481,12.245c7.507,7.486,33.601,12.518,54.117,6.343c18.081-5.442,16.571-14.583-2.585-19.458
		c-8.339-2.127-44.938-7.045-25.091-11.379c20.254-4.426,60.9,6.006,70.174-4.702c2.663-3.071-2.002-6.354-10.834-7.715
		c-6.2-0.954-13.313-0.92-19.958-0.604c-3.679,0.176-12.751,1.363-14.591-0.229c-7.863-6.818,29.666-12.994,45.478-13.364
		c14.672-0.344,29.061,0.46,41.216-2.941C465.825,678.821,469.354,673.422,463.462,668.8L463.462,668.8z M138.995,685.32
		c-7.897,0.159-14.166,0.985-14.535-0.931c-0.364-1.918,5.745-3.598,13.639-3.758c7.901-0.157,14.598,1.266,14.962,3.183
		C153.426,685.73,146.893,685.161,138.995,685.32L138.995,685.32z M205.254,664.207c-4.738,0.095-8.498,0.59-8.721-0.56
		c-0.215-1.149,3.446-2.158,8.189-2.253c4.733-0.094,8.754,0.759,8.97,1.909C213.915,664.454,209.996,664.112,205.254,664.207
		L205.254,664.207z M203.561,726.036c-6.375,0.645-13.694-1.073-16.353-3.839c-2.663-2.765,0.343-5.53,6.719-6.175
		c6.367-0.646,6.208,1.829,8.867,4.596C205.456,723.384,209.928,725.391,203.561,726.036L203.561,726.036z M288.244,636.33
		c-8.926,0-16.16,0.786-16.16-1.378c0-2.168,7.234-3.922,16.16-3.922c8.927,0,16.168,1.754,16.168,3.922
		C304.408,637.116,297.17,636.33,288.244,636.33L288.244,636.33z M344.813,733.356c2.663,2.766,7.134,4.772,0.768,5.418
		c-6.375,0.645-13.694-1.072-16.353-3.839c-2.663-2.765,0.343-5.528,6.718-6.175C342.314,728.115,342.155,730.591,344.813,733.356
		L344.813,733.356z M428.112,669.05c-8.91,0.178-15.984,1.113-16.396-1.05c-0.412-2.161,6.479-4.059,15.388-4.237
		c8.91-0.18,16.464,1.428,16.876,3.59C444.396,669.515,437.021,668.872,428.112,669.05L428.112,669.05z M428.112,669.05"/>
</g>
<g>
	<path fill="#EC6A19" d="M307.667,569.334c0,0,8,2.667,14,3s39.575,0.419,40.333-32.667c0.216-9.408-11,5.334-19,2.334
		s-17.333-12.001-20-9.334S307.667,569.334,307.667,569.334z"/>
	<path fill="#EC6A19" d="M196.667,623.667l19.667,13.334l-12.333,9l18.333,11.333l-12.833,9.667c0,0,31.5,10.333,48.833,8.333
		s57-8.334,49.333-37.667s-41.333-32.332-61-28.666S196.667,623.667,196.667,623.667z"/>
	<circle fill="#8EC6C6" cx="295.667" cy="534.334" r="12"/>
	<g>
		<defs>
			<rect id="SVGID_3_" x="140.847" y="492.095" width="223.652" height="204.812"/>
		</defs>
		<clipPath id="SVGID_4_">
			<use xlink:href="#SVGID_3_"  overflow="visible"/>
		</clipPath>
		<path clip-path="url(#SVGID_4_)" fill="#FCDBA7" d="M254.333,589.22c-64.124-3.8-78.484,31.722-108.286,6.601
			c4.68,65.283,46.643,96.525,78.604,96.525h57.358c36.242,0,59.213-19.401,59.213-50.603c0-31.242-31.202-51.288-29.042-57.398
			c0.84-2.365,3.44-5.766,6.275-10.171c2.56,0.48,5.245,0.73,7.721,0.73c4.64,0,13.601-0.73,21.601-5.726
			c11.521-7.16,16.361-20.275,16.681-26.881c0.165-3.086-0.525-5.275-2.08-6.525c-1.72-1.311-4.28-0.676-8.64,0.81
			c-3.761,1.32-8.48,2.96-12.201,2.561c-3.245-0.33-5.96-2.641-8.16-4.485c-1.955-1.681-3.521-3.041-5.561-3.041l-0.96,0.16
			c-3.995-19.32-17.721-40.807-50.558-39.637c-40.888,1.43-51.848,31.917-51.288,53.073
			C225.731,572.054,244.012,582.585,254.333,589.22L254.333,589.22z M344.733,564.344c-4.955,3.07-11.716,4.835-18.556,4.835
			c-7.636,0-12.316-2.205-12.756-3.439c0.275-0.556,2.955-4.24,4.72-6.681c2.16-2.96,4.39-6.04,5.875-8.916
			c2-3.8,2.285-7.05,2.48-9.405c0.235-2.516,0.315-2.915,1.24-3.275c0.48,0.36,1.32,1.035,1.925,1.556
			c2.63,2.245,6.275,5.315,11.276,5.84c4.84,0.521,10.4-1.365,14.681-2.84c1.08-0.355,2.4-0.835,3.36-1.085
			C359.299,544.497,355.333,557.738,344.733,564.344L344.733,564.344z M305.176,534.492c0,5.16-4.2,9.37-9.321,9.37
			c-5.16,0-9.36-4.21-9.36-9.37c0-5.12,4.2-9.321,9.36-9.321C300.976,525.171,305.176,529.372,305.176,534.492L305.176,534.492z
			 M224.371,637.223l-25.241-14.32c0,0,70.369-14.881,88.29-4.121c17.921,10.761,15.801,28.882,4.32,40.562
			c-23.326,23.682-75.369,7.16-75.369,7.16l14.001-9.68l-21.521-11.682L224.371,637.223z M208.851,645.143"/>
	</g>
</g>
</svg>
