<?xml version="1.0" encoding="utf-8"?>
<!-- Generator: Adobe Illustrator 16.0.0, SVG Export Plug-In . SVG Version: 6.00 Build 0)  -->
<!DOCTYPE svg PUBLIC "-//W3C//DTD SVG 1.1//EN" "http://www.w3.org/Graphics/SVG/1.1/DTD/svg11.dtd">
<svg version="1.1" id="Layer_1" xmlns="http://www.w3.org/2000/svg" xmlns:xlink="http://www.w3.org/1999/xlink" x="0px" y="0px"
	 width="1280px" height="800px" viewBox="0 0 1280 800" enable-background="new 0 0 1280 800" xml:space="preserve">
<path fill="#22B573" d="M677.992,424.881l0.199,1.479l-2.217,0.459l-0.299,3.142h2.656l3.535-0.345l1.818-2.157l-1.938-0.757
	l-1.059-1.216l-1.598-2.577l-0.76-3.638l-2.996,0.599l-0.84,1.299v1.438l1.439,0.977L677.992,424.881z M677.992,424.881"/>
<path fill="#22B573" d="M675.455,426.104l0.16-1.979l-1.758-0.762l-2.457,0.562l-1.818,2.937v1.875h2.117L675.455,426.104z
	 M675.455,426.104"/>
<path fill="#22B573" d="M624.935,434.47"/>
<rect fill="#F6BC99" width="1280" height="800"/>
<g opacity="0.5">
	<path fill="#99DDE0" d="M188.674,311.824c0,10.035-8.138,18.181-18.181,18.181c-10.035,0-18.18-8.146-18.18-18.181
		c0-10.043,8.146-18.181,18.18-18.181C180.536,293.643,188.674,301.781,188.674,311.824L188.674,311.824z M188.674,311.824"/>
	<path fill="#99DDE0" d="M178.208,331.238h-15.431c-12.828,0-23.268,10.448-23.268,23.276v18.871l0.042,0.293l1.303,0.405
		c12.241,3.828,22.888,5.104,31.646,5.104c17.104,0,27.018-4.879,27.629-5.19l1.215-0.62l0.129,0.008v-18.871
		C201.484,341.687,191.044,331.238,178.208,331.238L178.208,331.238z M178.208,331.238"/>
	<path fill="#8EAEB2" d="M162.709,258.867c0,16.199-13.132,29.329-29.33,29.329c-16.196,0-29.328-13.129-29.328-29.329
		c0-16.198,13.132-29.327,29.328-29.327C149.577,229.54,162.709,242.668,162.709,258.867L162.709,258.867z M162.709,258.867"/>
	<path fill="#8EC6C6" d="M207.604,288.195c16.19,0,29.319-13.139,29.319-29.329c0-16.189-13.129-29.327-29.319-29.327
		c-16.207,0-29.328,13.129-29.328,29.327C178.277,275.057,191.397,288.195,207.604,288.195L207.604,288.195z M207.604,288.195"/>
	<path fill="#8EAEB2" d="M156.242,328.376c-4.656-4.009-7.62-9.94-7.62-16.552c0-8.112,4.446-15.189,11.025-18.966
		c-4.286-1.707-8.939-2.672-13.819-2.672H120.94c-20.699,0-37.543,16.845-37.543,37.552v30.439l0.078,0.474l2.094,0.646
		c19.391,6.061,36.269,8.146,50.243,8.224v-13.008C135.811,341.902,144.527,331.315,156.242,328.376L156.242,328.376z
		 M156.242,328.376"/>
	<path fill="#8EC6C6" d="M220.044,290.187h-24.879c-4.88,0-9.535,0.965-13.811,2.672c6.578,3.776,11.018,10.854,11.018,18.966
		c0,6.612-2.957,12.535-7.612,16.552c4.69,1.163,9.009,3.568,12.518,7.077c5.094,5.096,7.905,11.871,7.905,19.069v13
		c13.974-0.078,30.854-2.164,50.242-8.224l2.095-0.646l0.078-0.474v-30.439C257.588,307.031,240.751,290.187,220.044,290.187
		L220.044,290.187z M220.044,290.187"/>
	<g>
		<path fill="#F3A298" d="M172.889,162.02c2.033,3.78,1.31,8.12-1.617,9.694L32.563,246.312c-2.927,1.573-6.946-0.214-8.979-3.996
			l-0.669-1.245c-2.033-3.779-1.309-8.12,1.616-9.694l138.71-74.598c2.926-1.573,6.946,0.216,8.979,3.996L172.889,162.02z"/>
		<path fill="#F3A298" d="M157.861,162.02c-2.033,3.78-1.31,8.12,1.617,9.694l138.709,74.598c2.927,1.573,6.946-0.214,8.979-3.996
			l0.669-1.245c2.033-3.779,1.309-8.12-1.616-9.694l-138.71-74.598c-2.926-1.573-6.946,0.216-8.979,3.996L157.861,162.02z"/>
	</g>
</g>
</svg>
