<?xml version="1.0" encoding="utf-8"?>
<!-- Generator: Adobe Illustrator 16.0.0, SVG Export Plug-In . SVG Version: 6.00 Build 0)  -->
<!DOCTYPE svg PUBLIC "-//W3C//DTD SVG 1.1//EN" "http://www.w3.org/Graphics/SVG/1.1/DTD/svg11.dtd">
<svg version="1.1" id="Layer_1" xmlns="http://www.w3.org/2000/svg" xmlns:xlink="http://www.w3.org/1999/xlink" x="0px" y="0px"
	 width="1280px" height="800px" viewBox="0 0 1280 800" enable-background="new 0 0 1280 800" xml:space="preserve">
<path fill="#22B573" d="M677.992,424.881l0.199,1.479l-2.217,0.459l-0.299,3.142h2.656l3.535-0.345l1.818-2.157l-1.938-0.757
	l-1.059-1.216l-1.598-2.577l-0.76-3.638l-2.996,0.599l-0.84,1.299v1.438l1.439,0.977L677.992,424.881z M677.992,424.881"/>
<path fill="#22B573" d="M675.455,426.104l0.16-1.979l-1.758-0.762l-2.457,0.562l-1.818,2.937v1.875h2.117L675.455,426.104z
	 M675.455,426.104"/>
<path fill="#22B573" d="M624.935,434.47"/>
<rect fill="#F6BC99" width="1280" height="800"/>
<g>
	<path fill="#99DDE0" d="M320.007,604.465c0,14.203-11.519,25.733-25.733,25.733c-14.203,0-25.732-11.53-25.732-25.733
		c0-14.215,11.529-25.733,25.732-25.733C308.488,578.731,320.007,590.25,320.007,604.465L320.007,604.465z M320.007,604.465"/>
	<path fill="#99DDE0" d="M305.194,631.943h-21.841c-18.156,0-32.933,14.788-32.933,32.944v26.709l0.06,0.415l1.844,0.573
		c17.326,5.418,32.395,7.224,44.792,7.224c24.208,0,38.24-6.906,39.106-7.346l1.72-0.878l0.183,0.012v-26.709
		C338.138,646.731,323.362,631.943,305.194,631.943L305.194,631.943z M305.194,631.943"/>
	<path fill="#8EAEB2" d="M283.257,529.51c0,22.928-18.586,41.511-41.513,41.511c-22.924,0-41.51-18.583-41.51-41.511
		c0-22.927,18.586-41.51,41.51-41.51C264.67,488,283.257,506.583,283.257,529.51L283.257,529.51z M283.257,529.51"/>
	<path fill="#8EC6C6" d="M346.801,571.021c22.915,0,41.498-18.596,41.498-41.511c0-22.914-18.583-41.51-41.498-41.51
		c-22.939,0-41.51,18.583-41.51,41.51C305.292,552.425,323.862,571.021,346.801,571.021L346.801,571.021z M346.801,571.021"/>
	<path fill="#8EAEB2" d="M274.104,627.893c-6.59-5.674-10.785-14.069-10.785-23.428c0-11.481,6.293-21.499,15.604-26.844
		c-6.066-2.416-12.653-3.782-19.56-3.782h-35.226c-29.296,0-53.138,23.842-53.138,53.15v43.084l0.11,0.671l2.963,0.915
		c27.445,8.578,51.334,11.53,71.113,11.641v-18.412C245.186,647.036,257.522,632.053,274.104,627.893L274.104,627.893z
		 M274.104,627.893"/>
	<path fill="#8EC6C6" d="M364.408,573.839h-35.214c-6.906,0-13.495,1.366-19.547,3.782c9.31,5.345,15.594,15.362,15.594,26.844
		c0,9.358-4.185,17.741-10.774,23.428c6.638,1.646,12.75,5.051,17.717,10.017c7.211,7.212,11.189,16.802,11.189,26.99v18.4
		c19.779-0.11,43.669-3.062,71.111-11.641l2.965-0.915l0.11-0.671v-43.084C417.547,597.681,393.717,573.839,364.408,573.839
		L364.408,573.839z M364.408,573.839"/>
	<g>
		<path fill="#F3A298" d="M297.666,392.434c2.877,5.35,1.854,11.493-2.289,13.72L99.05,511.739
			c-4.142,2.227-9.832-0.304-12.709-5.655l-0.947-1.762c-2.877-5.35-1.853-11.493,2.288-13.721L284.01,385.017
			c4.142-2.227,9.831,0.305,12.708,5.656L297.666,392.434z"/>
		<path fill="#F3A298" d="M276.395,392.434c-2.877,5.35-1.854,11.493,2.289,13.72L475.01,511.739
			c4.142,2.227,9.832-0.304,12.709-5.655l0.947-1.762c2.877-5.35,1.853-11.493-2.288-13.721L290.05,385.017
			c-4.142-2.227-9.831,0.305-12.708,5.656L276.395,392.434z"/>
	</g>
</g>
</svg>
