<?xml version="1.0" encoding="utf-8"?>
<!-- Generator: Adobe Illustrator 16.0.0, SVG Export Plug-In . SVG Version: 6.00 Build 0)  -->
<!DOCTYPE svg PUBLIC "-//W3C//DTD SVG 1.1//EN" "http://www.w3.org/Graphics/SVG/1.1/DTD/svg11.dtd">
<svg version="1.1" id="Layer_1" xmlns="http://www.w3.org/2000/svg" xmlns:xlink="http://www.w3.org/1999/xlink" x="0px" y="0px"
	 width="1280px" height="800px" viewBox="0 0 1280 800" enable-background="new 0 0 1280 800" xml:space="preserve">
<path fill="#22B573" d="M677.992,424.881l0.199,1.479l-2.217,0.459l-0.299,3.142h2.656l3.535-0.345l1.818-2.157l-1.938-0.757
	l-1.059-1.216l-1.598-2.577l-0.76-3.638l-2.996,0.599l-0.84,1.299v1.438l1.439,0.977L677.992,424.881z M677.992,424.881"/>
<path fill="#22B573" d="M675.455,426.104l0.16-1.979l-1.758-0.762l-2.457,0.562l-1.818,2.937v1.875h2.117L675.455,426.104z
	 M675.455,426.104"/>
<path fill="#22B573" d="M624.935,434.47"/>
<rect fill="#F6BC99" width="1280" height="800"/>
<g opacity="0.3">
	<path fill="#007E80" d="M166.417,149.187c-6.231,0-11.31,5.066-11.31,11.307c0,6.235,5.079,11.302,11.31,11.302
		c6.232,0,11.298-5.066,11.298-11.302C177.716,154.253,172.65,149.187,166.417,149.187L166.417,149.187z M166.417,166.775
		c-3.471,0-6.28-2.819-6.28-6.282c0-3.468,2.809-6.28,6.28-6.28c3.46,0,6.281,2.812,6.281,6.28
		C172.699,163.957,169.877,166.775,166.417,166.775L166.417,166.775z M166.417,166.775"/>
	<path fill="#8EC6C6" d="M146.742,229.877c-12.869,0-23.332,10.463-23.332,23.322c0,12.865,10.463,23.33,23.332,23.33
		c12.855,0,23.319-10.464,23.319-23.33C170.061,240.34,159.597,229.877,146.742,229.877L146.742,229.877z M146.742,271.502
		c-10.096,0-18.315-8.206-18.315-18.302c0-10.096,8.219-18.303,18.315-18.303c10.083,0,18.302,8.219,18.302,18.303
		C165.044,263.296,156.837,271.502,146.742,271.502L146.742,271.502z M146.742,271.502"/>
	<path fill="#FFFFFF" d="M73.382,169.252c-7.333,4.441-8.903,14.5-8.965,14.917c-0.111,0.689,0.368,1.328,1.055,1.435
		c0.06,0,0.123,0.012,0.186,0.012c0.612,0,1.151-0.45,1.237-1.067c0.012-0.095,1.484-9.32,7.791-13.147
		c0.587-0.356,0.785-1.132,0.414-1.718C74.746,169.084,73.973,168.9,73.382,169.252L73.382,169.252z M73.382,169.252"/>
	<path fill="#FFFFFF" d="M138.24,240.476c-5.631,2.64-6.342,12.23-6.367,12.635c-0.049,0.699,0.479,1.3,1.166,1.35
		c0.037,0,0.061,0,0.086,0c0.65,0,1.202-0.515,1.251-1.179c0.172-2.354,1.374-8.853,4.931-10.525
		c0.626-0.291,0.908-1.041,0.614-1.667C139.626,240.451,138.866,240.182,138.24,240.476L138.24,240.476z M138.24,240.476"/>
	<path fill="#FFFFFF" d="M165.854,155.489c-3.104,0.617-4.036,5.094-4.134,5.608c-0.123,0.672,0.319,1.335,1.006,1.458
		c0.073,0.024,0.147,0.024,0.233,0.024c0.589,0,1.116-0.417,1.227-1.015c0.196-1.042,1.018-3.385,2.159-3.606
		c0.675-0.135,1.116-0.797,0.981-1.485C167.203,155.799,166.516,155.354,165.854,155.489L165.854,155.489z M165.854,155.489"/>
	<path fill="#8EAEB2" d="M203.709,271.986c0-6.231-5.066-11.298-11.307-11.298c-6.235,0-11.302,5.067-11.302,11.298
		s5.067,11.31,11.302,11.31C198.643,283.296,203.709,278.217,203.709,271.986L203.709,271.986z M186.121,271.986
		c0-3.459,2.819-6.281,6.282-6.281c3.468,0,6.28,2.821,6.28,6.281c0,3.472-2.812,6.281-6.28,6.281
		C188.939,278.267,186.121,275.458,186.121,271.986L186.121,271.986z M186.121,271.986"/>
	<path fill="#007E80" d="M123.019,291.663c0-12.856-10.464-23.32-23.323-23.32c-12.865,0-23.329,10.464-23.329,23.32
		c0,12.868,10.464,23.332,23.329,23.332C112.555,314.995,123.019,304.53,123.019,291.663L123.019,291.663z M81.394,291.663
		c0-10.096,8.207-18.303,18.302-18.303c10.084,0,18.303,8.219,18.303,18.303c0,10.096-8.207,18.314-18.303,18.314
		C89.6,309.977,81.394,301.758,81.394,291.663L81.394,291.663z M81.394,291.663"/>
	<path fill="#FFFFFF" d="M183.643,365.021c0.353-0.59,0.168-1.363-0.433-1.718c-0.585-0.371-1.361-0.173-1.717,0.414
		c-3.827,6.307-13.052,7.779-13.147,7.792c-0.616,0.085-1.067,0.625-1.067,1.237c0,0.062,0.012,0.126,0.012,0.185
		c0.107,0.688,0.745,1.166,1.436,1.055C169.144,373.924,179.202,372.354,183.643,365.021L183.643,365.021z M183.643,365.021"/>
	<path fill="#FFFFFF" d="M112.42,300.163c0.295-0.625,0.024-1.385-0.613-1.68c-0.626-0.294-1.377-0.013-1.668,0.613
		c-1.672,3.557-8.17,4.76-10.525,4.931c-0.662,0.049-1.178,0.602-1.178,1.251c0,0.026,0,0.049,0,0.086
		c0.049,0.688,0.65,1.216,1.35,1.166C100.189,306.506,109.78,305.794,112.42,300.163L112.42,300.163z M112.42,300.163"/>
	<path fill="#FFFFFF" d="M197.407,272.55c0.135-0.663-0.31-1.35-0.984-1.472c-0.687-0.135-1.35,0.307-1.484,0.981
		c-0.221,1.141-2.564,1.963-3.606,2.159c-0.599,0.11-1.016,0.638-1.016,1.228c0,0.085,0,0.159,0.024,0.232
		c0.123,0.687,0.786,1.129,1.457,1.006C192.313,276.586,196.79,275.653,197.407,272.55L197.407,272.55z M197.407,272.55"/>
	<path fill="none" d="M92.3,159.234c-17.15,0-31.096,13.957-31.096,31.109c0,17.15,13.946,31.106,31.096,31.106
		c17.149,0,31.109-13.956,31.109-31.106C123.41,173.19,109.449,159.234,92.3,159.234z"/>
	<path d="M119.742,213.783c0.352-0.412,0.694-0.832,1.028-1.259L119.742,213.783z"/>
	<path fill="#8EAEB2" d="M120.77,212.524c4.793-6.129,7.657-13.821,7.657-22.181c0-0.187-0.024-0.356-0.024-0.53l-0.503-5.419
		c-2.847-17.103-17.702-30.18-35.599-30.18c-19.922,0-36.127,16.205-36.127,36.13c0,19.921,16.205,36.123,36.127,36.123
		c9.041,0,17.296-3.357,23.638-8.853l3.803-3.831L120.77,212.524z M92.3,221.449c-17.15,0-31.096-13.956-31.096-31.106
		c0-17.153,13.946-31.109,31.096-31.109c17.149,0,31.109,13.957,31.109,31.109C123.41,207.493,109.449,221.449,92.3,221.449z"/>
	<path fill="#19B3B8" d="M127.899,184.394l0.503,5.419c4.882,1.828,8.305,6.492,8.305,11.926c0,7.038-5.729,12.767-12.771,12.767
		c-1.447,0-2.846-0.258-4.195-0.724l-3.803,3.831c2.478,1.235,5.189,1.922,7.998,1.922c9.814,0,17.8-7.982,17.8-17.796
		C141.736,193.346,135.91,186.209,127.899,184.394z"/>
	<path fill="none" d="M162.553,314.995c-17.15,0-31.106,13.96-31.106,31.109c0,17.15,13.957,31.095,31.106,31.095
		c17.153,0,31.109-13.945,31.109-31.095C193.662,328.955,179.706,314.995,162.553,314.995z"/>
	<path fill="#19B3B8" d="M168.502,310.505l-5.419-0.503c-0.174,0-0.343-0.024-0.53-0.024c-8.942,0-17.122,3.276-23.439,8.685
		l-3.83,3.803c-5.496,6.342-8.854,14.598-8.854,23.639c0,19.921,16.202,36.126,36.124,36.126c19.925,0,36.129-16.205,36.129-36.126
		C198.682,328.206,185.606,313.351,168.502,310.505z M162.553,377.199c-17.15,0-31.106-13.945-31.106-31.095
		c0-17.149,13.957-31.109,31.106-31.109c17.153,0,31.109,13.96,31.109,31.109C193.662,363.254,179.706,377.199,162.553,377.199z"/>
	<path fill="#8EC6C6" d="M138.39,314.467c0-7.042,5.728-12.77,12.767-12.77c5.434,0,10.099,3.423,11.926,8.304l5.419,0.503
		c-1.816-8.011-8.952-13.837-17.346-13.837c-9.814,0-17.796,7.985-17.796,17.799c0,2.809,0.687,5.52,1.923,7.998l3.83-3.803
		C138.647,317.312,138.39,315.915,138.39,314.467z"/>
</g>
</svg>
