<?xml version="1.0" encoding="utf-8"?>
<!-- Generator: Adobe Illustrator 16.0.0, SVG Export Plug-In . SVG Version: 6.00 Build 0)  -->
<!DOCTYPE svg PUBLIC "-//W3C//DTD SVG 1.1//EN" "http://www.w3.org/Graphics/SVG/1.1/DTD/svg11.dtd">
<svg version="1.1" id="Layer_1" xmlns="http://www.w3.org/2000/svg" xmlns:xlink="http://www.w3.org/1999/xlink" x="0px" y="0px"
	 width="1280px" height="800px" viewBox="0 0 1280 800" enable-background="new 0 0 1280 800" xml:space="preserve">
<path fill="#22B573" d="M677.992,424.881l0.199,1.479l-2.217,0.459l-0.299,3.142h2.656l3.535-0.345l1.818-2.157l-1.938-0.757
	l-1.059-1.216l-1.598-2.577l-0.76-3.638l-2.996,0.599l-0.84,1.299v1.438l1.439,0.977L677.992,424.881z M677.992,424.881"/>
<path fill="#22B573" d="M675.455,426.104l0.16-1.979l-1.758-0.762l-2.457,0.562l-1.818,2.937v1.875h2.117L675.455,426.104z
	 M675.455,426.104"/>
<path fill="#22B573" d="M624.935,434.47"/>
<rect fill="#F6BC99" width="1280" height="800"/>
<g>
	<path fill="#007E80" d="M319.279,390.187c-8.824,0-16.015,7.174-16.015,16.01c0,8.829,7.191,16.003,16.015,16.003
		c8.825,0,15.998-7.174,15.998-16.003C335.277,397.361,328.104,390.187,319.279,390.187L319.279,390.187z M319.279,415.092
		c-4.916,0-8.893-3.991-8.893-8.895c0-4.911,3.978-8.893,8.893-8.893c4.899,0,8.894,3.982,8.894,8.893
		C328.173,411.101,324.178,415.092,319.279,415.092L319.279,415.092z M319.279,415.092"/>
	<path fill="#8EC6C6" d="M291.417,504.444c-18.222,0-33.038,14.815-33.038,33.024c0,18.217,14.816,33.034,33.038,33.034
		c18.204,0,33.021-14.817,33.021-33.034C324.438,519.26,309.621,504.444,291.417,504.444L291.417,504.444z M291.417,563.385
		c-14.296,0-25.934-11.619-25.934-25.916c0-14.296,11.638-25.917,25.934-25.917c14.278,0,25.917,11.638,25.917,25.917
		C317.334,551.766,305.713,563.385,291.417,563.385L291.417,563.385z M291.417,563.385"/>
	<path fill="#FFFFFF" d="M187.542,418.6c-10.383,6.289-12.606,20.532-12.695,21.123c-0.157,0.977,0.521,1.88,1.494,2.032
		c0.084,0,0.173,0.017,0.263,0.017c0.866,0,1.63-0.638,1.752-1.511c0.018-0.135,2.102-13.197,11.032-18.616
		c0.832-0.504,1.112-1.603,0.586-2.433C189.472,418.361,188.377,418.101,187.542,418.6L187.542,418.6z M187.542,418.6"/>
	<path fill="#FFFFFF" d="M279.38,519.452c-7.973,3.737-8.98,17.317-9.015,17.891c-0.07,0.989,0.677,1.841,1.65,1.911
		c0.052,0,0.086,0,0.121,0c0.921,0,1.703-0.729,1.772-1.669c0.243-3.334,1.945-12.536,6.982-14.903
		c0.886-0.412,1.286-1.475,0.869-2.361C281.342,519.417,280.266,519.035,279.38,519.452L279.38,519.452z M279.38,519.452"/>
	<path fill="#FFFFFF" d="M318.48,399.111c-4.395,0.873-5.715,7.213-5.854,7.942c-0.174,0.951,0.452,1.89,1.424,2.063
		c0.104,0.034,0.208,0.034,0.33,0.034c0.833,0,1.581-0.59,1.737-1.438c0.277-1.477,1.441-4.793,3.057-5.106
		c0.956-0.19,1.581-1.129,1.39-2.102C320.391,399.549,319.418,398.92,318.48,399.111L318.48,399.111z M318.48,399.111"/>
	<path fill="#8EAEB2" d="M372.083,564.069c0-8.823-7.173-15.998-16.01-15.998c-8.829,0-16.003,7.175-16.003,15.998
		c0,8.824,7.174,16.016,16.003,16.016C364.91,580.085,372.083,572.894,372.083,564.069L372.083,564.069z M347.178,564.069
		c0-4.898,3.991-8.894,8.895-8.894c4.911,0,8.893,3.995,8.893,8.894c0,4.916-3.982,8.895-8.893,8.895
		C351.169,572.964,347.178,568.985,347.178,564.069L347.178,564.069z M347.178,564.069"/>
	<path fill="#007E80" d="M257.826,591.932c0-18.204-14.817-33.021-33.025-33.021c-18.217,0-33.034,14.817-33.034,33.021
		c0,18.221,14.817,33.038,33.034,33.038C243.009,624.97,257.826,610.152,257.826,591.932L257.826,591.932z M198.885,591.932
		c0-14.296,11.621-25.917,25.917-25.917c14.278,0,25.917,11.638,25.917,25.917c0,14.296-11.621,25.934-25.917,25.934
		S198.885,606.228,198.885,591.932L198.885,591.932z M198.885,591.932"/>
	<path fill="#FFFFFF" d="M343.67,695.808c0.499-0.836,0.239-1.931-0.612-2.433c-0.829-0.524-1.928-0.245-2.432,0.587
		c-5.419,8.93-18.481,11.015-18.616,11.033c-0.873,0.121-1.512,0.885-1.512,1.751c0,0.089,0.018,0.179,0.018,0.263
		c0.151,0.974,1.055,1.65,2.032,1.493C323.139,708.413,337.382,706.191,343.67,695.808L343.67,695.808z M343.67,695.808"/>
	<path fill="#FFFFFF" d="M242.818,603.969c0.417-0.885,0.035-1.962-0.868-2.379c-0.887-0.417-1.95-0.019-2.363,0.868
		c-2.367,5.036-11.568,6.739-14.904,6.982c-0.938,0.069-1.668,0.852-1.668,1.771c0,0.036,0,0.069,0,0.121
		c0.07,0.975,0.921,1.722,1.911,1.65C225.5,612.95,239.08,611.942,242.818,603.969L242.818,603.969z M242.818,603.969"/>
	<path fill="#FFFFFF" d="M363.159,564.869c0.191-0.939-0.438-1.912-1.394-2.085c-0.973-0.191-1.911,0.435-2.102,1.39
		c-0.313,1.615-3.63,2.779-5.106,3.057c-0.847,0.156-1.438,0.903-1.438,1.738c0,0.121,0,0.225,0.034,0.329
		c0.173,0.973,1.112,1.599,2.062,1.425C355.946,570.583,362.286,569.263,363.159,564.869L363.159,564.869z M363.159,564.869"/>
	<path fill="none" d="M214.329,404.413c-24.284,0-44.031,19.763-44.031,44.051c0,24.284,19.748,44.046,44.031,44.046
		c24.283,0,44.051-19.762,44.051-44.046C258.379,424.176,238.612,404.413,214.329,404.413z"/>
	<path d="M253.186,481.654c0.499-0.583,0.983-1.178,1.456-1.782L253.186,481.654z"/>
	<path fill="#8EAEB2" d="M254.642,479.872c6.787-8.679,10.842-19.57,10.842-31.408c0-0.265-0.034-0.504-0.034-0.751l-0.712-7.674
		c-4.03-24.218-25.065-42.735-50.408-42.735c-28.209,0-51.155,22.946-51.155,51.16c0,28.209,22.946,51.15,51.155,51.15
		c12.802,0,24.492-4.754,33.472-12.536l5.385-5.424L254.642,479.872z M214.329,492.51c-24.284,0-44.031-19.762-44.031-44.046
		c0-24.288,19.748-44.051,44.031-44.051c24.283,0,44.051,19.763,44.051,44.051C258.379,472.748,238.612,492.51,214.329,492.51z"/>
	<path fill="#19B3B8" d="M264.737,440.039l0.712,7.674c6.913,2.588,11.759,9.193,11.759,16.888c0,9.966-8.112,18.078-18.083,18.078
		c-2.05,0-4.03-0.365-5.94-1.024l-5.385,5.424c3.509,1.749,7.348,2.722,11.325,2.722c13.896,0,25.204-11.303,25.204-25.199
		C284.33,452.716,276.08,442.61,264.737,440.039z"/>
	<path fill="none" d="M313.806,624.97c-24.284,0-44.046,19.768-44.046,44.051c0,24.284,19.762,44.03,44.046,44.03
		c24.288,0,44.051-19.746,44.051-44.03C357.857,644.737,338.094,624.97,313.806,624.97z"/>
	<path fill="#19B3B8" d="M322.231,618.612l-7.674-0.713c-0.247,0-0.486-0.034-0.751-0.034c-12.663,0-24.245,4.639-33.19,12.298
		l-5.424,5.385c-7.782,8.98-12.537,20.671-12.537,33.473c0,28.209,22.942,51.155,51.151,51.155
		c28.213,0,51.159-22.946,51.159-51.155C364.965,643.677,346.449,622.642,322.231,618.612z M313.806,713.051
		c-24.284,0-44.046-19.746-44.046-44.03c0-24.283,19.762-44.051,44.046-44.051c24.288,0,44.051,19.768,44.051,44.051
		C357.857,693.305,338.094,713.051,313.806,713.051z"/>
	<path fill="#8EC6C6" d="M279.592,624.223c0-9.971,8.111-18.082,18.078-18.082c7.695,0,14.299,4.847,16.888,11.759l7.674,0.713
		c-2.571-11.343-12.676-19.593-24.562-19.593c-13.896,0-25.2,11.307-25.2,25.203c0,3.978,0.972,7.816,2.723,11.325l5.424-5.385
		C279.956,628.252,279.592,626.272,279.592,624.223z"/>
</g>
</svg>
