<?xml version="1.0" encoding="utf-8"?>
<!-- Generator: Adobe Illustrator 16.0.0, SVG Export Plug-In . SVG Version: 6.00 Build 0)  -->
<!DOCTYPE svg PUBLIC "-//W3C//DTD SVG 1.1//EN" "http://www.w3.org/Graphics/SVG/1.1/DTD/svg11.dtd">
<svg version="1.1" id="Layer_1" xmlns="http://www.w3.org/2000/svg" xmlns:xlink="http://www.w3.org/1999/xlink" x="0px" y="0px"
	 width="1280px" height="800px" viewBox="0 0 1280 800" enable-background="new 0 0 1280 800" xml:space="preserve">
<path fill="#22B573" d="M677.992,424.881l0.199,1.479l-2.217,0.459l-0.299,3.142h2.656l3.535-0.345l1.818-2.157l-1.938-0.757
	l-1.059-1.216l-1.598-2.577l-0.76-3.638l-2.996,0.599l-0.84,1.299v1.438l1.439,0.977L677.992,424.881z M677.992,424.881"/>
<path fill="#22B573" d="M675.455,426.104l0.16-1.979l-1.758-0.762l-2.457,0.562l-1.818,2.937v1.875h2.117L675.455,426.104z
	 M675.455,426.104"/>
<path fill="#22B573" d="M624.935,434.47"/>
<rect fill="#F6BC99" width="1280" height="800"/>
<g opacity="0.3">
	<path fill="none" stroke="#99DDE0" stroke-width="3.5261" stroke-miterlimit="10" d="M12.5,210.682
		c0,0,75.812,31.664,149.156,31.664c73.344,0,148-31.427,148-31.427"/>
	<g>
		<path fill="#3FA9F5" d="M276.905,220.069l-2.921,0.773l0.065,0.625c0.258,0.921,0.272,4.068-2.919,5.195
			c-0.313,0.033-0.609,0.216-0.921,0.249c-0.625,0.065-1.104-0.036-1.746-0.13c-1.146-0.35-2.18-1.189-2.759-2.231
			c-0.017-0.16-0.595-1.198-0.595-1.198l-0.312,0.032c0.048,0.463,0.098,0.936-0.013,1.419c-0.022,1.262-0.38,2.402-1.042,3.579
			c-1.3,2.656-4.065,4.839-7.45,5.671c-0.609,0.217-1.073,0.266-1.698,0.332c-2.498,0.262-4.917-0.274-6.937-1.482
			c-1.011-0.681-2.045-1.518-2.768-2.391c-0.378-0.592-0.755-1.181-0.98-1.789l-3.065,0.798c0,0,0.509,1.84,0.524,1.993
			c0.266,1.071-0.083,2.218-0.609,3.218c-0.526,1.004-1.551,1.733-2.783,2.023l-0.625,0.065c-1.096,0.115-2.233-0.233-3.076-0.776
			c-0.85-0.545-1.572-1.414-1.839-2.497l-0.016-0.151l-0.323-1.545l-2.145,0.542l-6.757,19.782l12.941,4.634l11.434,45.945
			l46.705-11.675l-11.362-46.735l9.188-10.101L276.905,220.069z M276.905,220.069"/>
		<path fill="#F15A24" d="M234.486,221.508c-0.92,0.258-1.303,1.085-1.068,1.852l0.896,4.001l0.315,1.545l0.324,1.546l0.517,1.994
			l0.016,0.159c0.192,0.287,0.377,0.584,0.554,0.727c0.345,0.282,0.81,0.232,1.122,0.2l0.16-0.017
			c0.608-0.226,1.007-0.9,0.942-1.515l-0.017-0.16l-0.508-1.84l-0.315-1.538l-0.324-1.545l-0.89-4.009
			c-0.049-0.463-0.393-0.743-0.722-0.87C235.279,221.586,234.935,221.307,234.486,221.508L234.486,221.508z M234.486,221.508"/>
		<path fill="#F15A24" d="M270.136,218.722l-1.829-5.481c-0.226-0.607-0.915-1.169-1.54-1.104l-0.312,0.033
			c-0.447,0.209-0.744,0.394-0.872,0.724c-0.119,0.329-0.229,0.818-0.038,1.104l1.821,5.329l0.46,1.377l0.459,1.366l0.201,0.451
			c0.017,0.16,0.209,0.456,0.377,0.59c0.361,0.438,1.001,0.526,1.45,0.325c0.456-0.21,0.752-0.395,0.872-0.72
			c0.143-0.177,0.127-0.329,0.11-0.49l-0.082-0.778l-0.459-1.371L270.136,218.722z M270.136,218.722"/>
	</g>
	<g>
		<g>
			<path fill="#004853" d="M157.292,246.546v0.688l-0.312,0.158c-0.955,13.983-4.411,22.664-10.283,25.889
				c-1.81,0.99-3.659,1.345-5.338,1.345c-4.344,0-7.878-2.348-8.076-2.458v71.927h22.083l8.882-66.204l11.017,66.204h19.931v-71.659
				c-1.114,0.648-4.07,2.19-7.643,2.19c-1.689,0-3.538-0.355-5.337-1.345c-5.837-3.226-9.327-11.906-10.253-25.889l-0.342-0.158
				v-0.688H157.292z M157.292,246.546"/>
			<path fill="#004853" d="M171.622,239.447v7.099h3.068c0.845,12.948,4.027,21.277,9.14,24.081
				c5.42,2.958,11.406-0.956,11.445-0.995l0.618,1.032v-33.219h-63.295v34.026l1.071-1.838c0.043,0.039,6.039,3.952,11.444,0.995
				c5.113-2.804,8.262-11.133,9.145-24.081h3.078v-7.099H171.622z M171.622,239.447"/>
		</g>
		<path fill="#EC6A19" d="M183.898,229.327c-0.941,0.056-1.53,0.721-1.484,1.506l-0.227,4.094l-0.067,1.578l-0.061,1.577
			l-0.041,2.042l0.009,0.16c0.018,0.312,0.197,0.607,0.368,0.912c0.331,0.297,0.653,0.439,0.976,0.573l0.153-0.008
			c0.789-0.047,1.226-0.542,1.35-1.178l-0.009-0.153l0.042-1.889l0.068-1.576l0.061-1.576l0.233-4.093
			c-0.028-0.474-0.046-0.788-0.377-1.081C184.534,229.45,184.211,229.308,183.898,229.327L183.898,229.327z M183.898,229.327"/>
		<path fill="#EC6A19" d="M145.224,229.48c-0.953,0.034-1.447,0.772-1.474,1.42l-0.158,4.028l-0.067,2.884l0.121,2.216l0.03,0.152
			c0.062,0.308,0.123,0.616,0.334,0.892c0.219,0.276,0.74,0.493,1.047,0.432l0.158-0.032c0.616-0.123,1.321-0.583,1.355-1.229
			l-0.03-0.15l0.09-1.938l0.032-1.445l0.031-1.451l0.129-4.179c0.059-0.486-0.152-0.764-0.372-1.04
			C146.052,229.636,145.681,229.39,145.224,229.48L145.224,229.48z M145.224,229.48"/>
	</g>
	<g>
		<path fill="#99DDE0" d="M76.182,232.009c1.364,0.581,2.616,0.683,2.616,0.683c2.19,0.18,4.284-0.43,5.803-1.721
			c-4.48-0.996-8.803-1.98-12.958-3.114C72.441,229.659,74.043,231.206,76.182,232.009L76.182,232.009z M76.182,232.009"/>
		<path fill="#19B3B8" d="M101.339,232.183l-1.71-0.293l-0.295,1.705l-0.013,0.158c-0.262,1.233-0.963,2.119-1.792,2.681
			c-0.831,0.563-1.808,0.96-2.907,0.87l-0.465-0.039c-1.239-0.262-2.139-0.805-2.841-1.81c-0.708-1.001-0.923-2.127-0.681-3.203
			l0.013-0.157l0.319-2.021l-1.704-0.295c-0.217,0.768-0.754,1.513-1.118,2.111c-0.717,1.041-1.724,1.906-2.715,2.455
			c-1.825,1.106-4.233,1.696-6.735,1.492c-0.466-0.039-1.091-0.09-1.544-0.281c-3.242-0.742-5.917-2.69-7.442-5.178
			c-0.696-1.161-1.071-2.29-1.297-3.405c-0.108-0.641-0.069-1.114-0.018-1.74l-2.004-0.477l-0.19,0.458
			c-0.026,0.312-0.212,0.612-0.39,0.913c-0.728,1.193-1.731,1.903-3.02,2.266c-0.326,0.135-0.792,0.097-1.105,0.071
			c-0.312-0.026-0.625-0.051-0.924-0.238c-0.775-0.216-3.817-1.413-3.224-4.826l0.052-0.628l-3.403-0.745L39.44,236.861l9.584,9.753
			l-9.778,46.241l47.169,10.007l9.77-46.242l12.686-5.097L101.339,232.183z M101.339,232.183"/>
		<path fill="#EC6A19" d="M96.951,222.382c-0.939-0.077-1.616,0.5-1.681,1.284l-0.798,4.021l-0.288,1.553l-0.28,1.552l-0.327,2.017
			l-0.013,0.16c-0.026,0.312,0.109,0.63,0.236,0.956c0.286,0.341,0.585,0.526,0.886,0.705l0.153,0.012
			c0.787,0.064,1.29-0.365,1.501-0.977l0.012-0.153l0.307-1.864l0.289-1.551l0.281-1.552l0.805-4.021
			c0.039-0.473,0.064-0.785-0.222-1.123C97.563,222.593,97.263,222.407,96.951,222.382L96.951,222.382z M96.951,222.382"/>
		<path fill="#EC6A19" d="M64.932,213.779c-0.925-0.23-1.604,0.344-1.807,0.96l-1.259,3.83l-0.856,2.754l-0.493,2.165l-0.013,0.155
			c-0.025,0.312-0.051,0.625,0.076,0.949c0.135,0.325,0.576,0.677,0.889,0.703l0.16,0.012c0.625,0.053,1.43-0.197,1.641-0.808
			l0.012-0.152l0.619-1.839l0.428-1.38l0.428-1.386l1.272-3.982c0.19-0.451,0.064-0.777-0.07-1.103
			C65.685,214.155,65.396,213.817,64.932,213.779L64.932,213.779z M64.932,213.779"/>
	</g>
</g>
</svg>
