<?xml version="1.0" encoding="utf-8"?>
<!-- Generator: Adobe Illustrator 16.0.0, SVG Export Plug-In . SVG Version: 6.00 Build 0)  -->
<!DOCTYPE svg PUBLIC "-//W3C//DTD SVG 1.1//EN" "http://www.w3.org/Graphics/SVG/1.1/DTD/svg11.dtd">
<svg version="1.1" id="Layer_1" xmlns="http://www.w3.org/2000/svg" xmlns:xlink="http://www.w3.org/1999/xlink" x="0px" y="0px"
	 width="1280px" height="800px" viewBox="0 0 1280 800" enable-background="new 0 0 1280 800" xml:space="preserve">
<path fill="#22B573" d="M677.992,424.881l0.199,1.479l-2.217,0.459l-0.299,3.142h2.656l3.535-0.345l1.818-2.157l-1.938-0.757
	l-1.059-1.216l-1.598-2.577l-0.76-3.638l-2.996,0.599l-0.84,1.299v1.438l1.439,0.977L677.992,424.881z M677.992,424.881"/>
<path fill="#22B573" d="M675.455,426.104l0.16-1.979l-1.758-0.762l-2.457,0.562l-1.818,2.937v1.875h2.117L675.455,426.104z
	 M675.455,426.104"/>
<path fill="#22B573" d="M624.935,434.47"/>
<rect fill="#F6BC99" width="1280" height="800"/>
<g>
	<path fill="none" stroke="#99DDE0" stroke-width="5" stroke-miterlimit="10" d="M79.5,470.682c0,0,107.5,44.898,211.5,44.898
		s209.861-44.562,209.861-44.562"/>
	<g>
		<path fill="#99DDE0" d="M428.131,497.694c2.313-1.358,3.875-3.538,4.756-5.858c-6.275,1.986-12.572,3.773-18.677,5.306
			c1.741,1.61,4.285,2.454,7.203,2.597C423.626,499.506,426.01,498.809,428.131,497.694L428.131,497.694z M428.131,497.694"/>
		<path fill="#F3A298" d="M454.42,483.992l-4.142,1.097l0.093,0.886c0.367,1.307,0.386,5.769-4.14,7.367
			c-0.443,0.047-0.864,0.307-1.307,0.353c-0.885,0.093-1.566-0.052-2.475-0.186c-1.625-0.495-3.091-1.687-3.912-3.163
			c-0.024-0.227-0.844-1.698-0.844-1.698l-0.443,0.046c0.069,0.656,0.139,1.326-0.018,2.012c-0.031,1.789-0.539,3.406-1.478,5.074
			c-1.843,3.766-5.765,6.861-10.564,8.041c-0.863,0.309-1.521,0.378-2.407,0.471c-3.542,0.371-6.973-0.389-9.837-2.103
			c-1.433-0.966-2.899-2.152-3.924-3.391c-0.536-0.839-1.071-1.675-1.39-2.536l-4.346,1.132c0,0,0.721,2.609,0.744,2.825
			c0.377,1.52-0.118,3.146-0.864,4.563c-0.746,1.424-2.199,2.458-3.946,2.869l-0.886,0.093c-1.554,0.163-3.167-0.331-4.361-1.101
			c-1.205-0.772-2.229-2.005-2.608-3.54l-0.023-0.215l-0.458-2.19l-3.042,0.769l-9.582,28.051l18.35,6.57l16.213,65.148
			l66.227-16.555l-16.112-66.27l13.028-14.322L454.42,483.992z M454.42,483.992"/>
		<path fill="#EC6A19" d="M394.271,486.033c-1.305,0.366-1.848,1.539-1.515,2.626l1.271,5.674l0.447,2.19l0.459,2.192l0.732,2.827
			l0.023,0.225c0.273,0.407,0.535,0.828,0.785,1.03c0.49,0.399,1.148,0.33,1.591,0.284l0.226-0.023
			c0.862-0.32,1.428-1.277,1.336-2.148l-0.024-0.228l-0.721-2.609l-0.447-2.181l-0.459-2.191l-1.262-5.686
			c-0.069-0.656-0.558-1.053-1.023-1.233C395.396,486.145,394.907,485.748,394.271,486.033L394.271,486.033z M394.271,486.033"/>
		<path fill="#EC6A19" d="M444.822,482.082l-2.593-7.772c-0.32-0.861-1.298-1.657-2.184-1.564l-0.443,0.046
			c-0.634,0.297-1.055,0.559-1.235,1.027c-0.169,0.466-0.326,1.159-0.054,1.564l2.582,7.557l0.652,1.953l0.651,1.938l0.285,0.639
			c0.024,0.227,0.296,0.646,0.535,0.837c0.512,0.622,1.42,0.746,2.057,0.461c0.646-0.298,1.066-0.56,1.236-1.021
			c0.203-0.251,0.18-0.467,0.156-0.694l-0.116-1.104l-0.651-1.943L444.822,482.082z M444.822,482.082"/>
	</g>
	<g>
		<g>
			<path fill="#004853" d="M284.812,521.537v0.975l-0.443,0.225c-1.353,19.828-6.254,32.137-14.581,36.71
				c-2.566,1.403-5.188,1.907-7.569,1.907c-6.16,0-11.171-3.33-11.451-3.486v101.991h31.313l12.595-93.876l15.621,93.876h28.262
				v-101.61c-1.579,0.919-5.772,3.105-10.837,3.105c-2.396,0-5.017-0.504-7.569-1.907c-8.277-4.573-13.226-16.882-14.539-36.71
				l-0.484-0.225v-0.975H284.812z M284.812,521.537"/>
			<path fill="#004853" d="M305.131,511.471v10.066h4.351c1.198,18.36,5.71,30.17,12.96,34.146
				c7.686,4.193,16.174-1.355,16.229-1.41l0.877,1.463v-47.104h-89.751v48.248l1.519-2.606c0.061,0.055,8.562,5.604,16.228,1.41
				c7.25-3.977,11.715-15.786,12.967-34.146h4.364v-10.066H305.131z M305.131,511.471"/>
		</g>
		<path fill="#EC6A19" d="M322.539,497.12c-1.334,0.079-2.17,1.022-2.104,2.136l-0.321,5.805l-0.096,2.237l-0.086,2.235
			l-0.058,2.896l0.013,0.228c0.026,0.441,0.279,0.861,0.522,1.293c0.47,0.422,0.927,0.623,1.384,0.812l0.217-0.012
			c1.118-0.066,1.738-0.77,1.914-1.671l-0.013-0.217l0.06-2.679l0.097-2.235l0.086-2.234l0.331-5.805
			c-0.04-0.672-0.065-1.116-0.535-1.532C323.44,497.295,322.983,497.094,322.539,497.12L322.539,497.12z M322.539,497.12"/>
		<path fill="#EC6A19" d="M267.7,497.338c-1.351,0.048-2.052,1.096-2.09,2.014l-0.224,5.712l-0.095,4.09l0.172,3.143l0.043,0.216
			c0.087,0.437,0.174,0.873,0.474,1.265c0.311,0.392,1.049,0.698,1.485,0.612l0.224-0.045c0.873-0.174,1.873-0.827,1.922-1.742
			l-0.042-0.213l0.128-2.748l0.045-2.049l0.043-2.057l0.183-5.926c0.083-0.688-0.216-1.083-0.526-1.475
			C268.874,497.559,268.348,497.209,267.7,497.338L267.7,497.338z M267.7,497.338"/>
	</g>
	<g>
		<path fill="#99DDE0" d="M169.799,500.924c1.934,0.823,3.709,0.969,3.709,0.969c3.106,0.255,6.074-0.61,8.229-2.44
			c-6.353-1.412-12.483-2.808-18.373-4.415C164.495,497.591,166.767,499.784,169.799,500.924L169.799,500.924z M169.799,500.924"/>
		<path fill="#19B3B8" d="M205.471,501.17l-2.425-0.416l-0.419,2.418l-0.019,0.225c-0.371,1.748-1.366,3.004-2.542,3.801
			c-1.178,0.799-2.563,1.361-4.122,1.233l-0.66-0.055c-1.757-0.372-3.033-1.142-4.028-2.566c-1.004-1.419-1.309-3.016-0.966-4.542
			l0.018-0.223l0.452-2.865l-2.416-0.419c-0.307,1.089-1.069,2.146-1.585,2.993c-1.016,1.477-2.444,2.703-3.849,3.48
			c-2.588,1.569-6.003,2.405-9.55,2.115c-0.66-0.055-1.546-0.127-2.189-0.398c-4.597-1.053-8.391-3.814-10.552-7.342
			c-0.987-1.646-1.519-3.247-1.839-4.828c-0.154-0.908-0.098-1.58-0.026-2.467l-2.842-0.677l-0.27,0.65
			c-0.037,0.443-0.3,0.868-0.553,1.294c-1.032,1.691-2.456,2.699-4.282,3.213c-0.462,0.191-1.123,0.138-1.567,0.101
			c-0.443-0.036-0.887-0.072-1.311-0.337c-1.099-0.307-5.413-2.004-4.571-6.844l0.073-0.891l-4.825-1.057L117.7,507.804
			l13.591,13.83l-13.865,65.569l66.884,14.189l13.854-65.57l17.989-7.228L205.471,501.17z M205.471,501.17"/>
		<path fill="#EC6A19" d="M199.249,487.272c-1.332-0.109-2.292,0.708-2.383,1.82l-1.131,5.701l-0.409,2.202l-0.397,2.201
			l-0.464,2.859l-0.018,0.227c-0.037,0.441,0.155,0.893,0.335,1.354c0.406,0.483,0.83,0.746,1.256,0.999l0.217,0.018
			c1.116,0.091,1.829-0.518,2.129-1.386l0.018-0.217l0.435-2.644l0.41-2.199l0.398-2.201l1.142-5.701
			c0.055-0.67,0.091-1.113-0.315-1.592C200.118,487.572,199.692,487.309,199.249,487.272L199.249,487.272z M199.249,487.272"/>
		<path fill="#EC6A19" d="M153.847,475.074c-1.312-0.326-2.274,0.488-2.562,1.361l-1.786,5.43l-1.214,3.906l-0.699,3.069
			l-0.018,0.22c-0.037,0.443-0.073,0.887,0.107,1.346c0.191,0.461,0.817,0.959,1.261,0.996l0.227,0.018
			c0.887,0.074,2.028-0.279,2.327-1.146l0.018-0.216l0.878-2.608l0.607-1.957l0.607-1.966l1.804-5.646
			c0.27-0.639,0.09-1.102-0.1-1.563C154.916,475.607,154.505,475.128,153.847,475.074L153.847,475.074z M153.847,475.074"/>
	</g>
</g>
</svg>
