<?xml version="1.0" encoding="utf-8"?>
<!-- Generator: Adobe Illustrator 16.0.0, SVG Export Plug-In . SVG Version: 6.00 Build 0)  -->
<!DOCTYPE svg PUBLIC "-//W3C//DTD SVG 1.1//EN" "http://www.w3.org/Graphics/SVG/1.1/DTD/svg11.dtd">
<svg version="1.1" id="Layer_1" xmlns="http://www.w3.org/2000/svg" xmlns:xlink="http://www.w3.org/1999/xlink" x="0px" y="0px"
	 width="1280px" height="800px" viewBox="0 0 1280 800" enable-background="new 0 0 1280 800" xml:space="preserve">
<path fill="#22B573" d="M677.992,424.881l0.199,1.479l-2.217,0.459l-0.299,3.142h2.656l3.535-0.345l1.818-2.157l-1.938-0.757
	l-1.059-1.216l-1.598-2.577l-0.76-3.638l-2.996,0.599l-0.84,1.299v1.438l1.439,0.977L677.992,424.881z M677.992,424.881"/>
<path fill="#22B573" d="M675.455,426.104l0.16-1.979l-1.758-0.762l-2.457,0.562l-1.818,2.937v1.875h2.117L675.455,426.104z
	 M675.455,426.104"/>
<path fill="#22B573" d="M624.935,434.47"/>
<rect fill="#F6BC99" width="1280" height="800"/>
<g opacity="0.3">
	<g>
		<polygon fill="#F4EB9A" points="19.443,233.575 29.232,220.084 39.022,206.593 62.268,233.759 85.513,260.924 52.478,247.249 		
			"/>
		<polygon fill="#F4EB9A" points="83.644,195.926 94.149,189.274 104.655,182.623 113.277,207.861 121.898,233.1 102.771,214.513 		
			"/>
		<polygon fill="#F4EB9A" points="151.229,152.768 167.889,153.306 184.549,153.845 175.095,188.325 165.641,222.806 
			158.435,187.786 		"/>
		<polygon fill="#F4EB9A" points="232.345,188.385 241.659,194.62 250.972,200.855 233.311,217.164 215.648,233.473 
			223.997,210.928 		"/>
		<polygon fill="#F4EB9A" points="283.937,207.035 295.146,219.372 306.356,231.708 275.019,248.92 243.681,266.133 263.81,236.584 
					"/>
	</g>
	<g>
		<path fill="#19B3B8" d="M122.466,277.962c-1.295-6.251-14.732-4.512-12.002-7.205s11.312,3.699,17.665-0.244
			c6.353-3.943,8.441-16.657,0-15.672c-8.441,0.986-23.124,5.357-25.839,10.041c-2.716,4.684-3.699,5.48-5.263,9.077
			c-1.565,3.596,20.208,5.437,17.438,7.638c-2.769,2.202-17.591-2.702-22.168,0c-4.577,2.701-5.033,16.405-2.183,18.169
			c2.85,1.765,16.078,4.229,21.078,0C116.191,295.538,123.762,284.214,122.466,277.962z M122.466,277.962"/>
		<path fill="#19B3B8" d="M105.854,307.313c-3.582-2.202-13.09-1.225-15.451,0c-2.361,1.225,16.285,19.725,22.723,18.825
			c6.438-0.899,12.625-0.628,12.716-5.091C125.934,316.584,109.437,309.516,105.854,307.313z M105.854,307.313"/>
		<path fill="#19B3B8" d="M211.761,322.762c0,0,9.577,3.492,8.365,4c-1.212,0.508-9.306,2.077-12.002-1.455
			s0.187-9.276,4.365-11.274c4.178-1.999,25.682,2.142,26.169-1.802c0.486-3.943-4.326-20.666-10.911-18.548
			s-15.384,12.969-20.35,14.911c-4.967,1.942-7.327-7.082-19.259-5.817c-11.932,1.265-13.349,7.76-19.259,11.256
			c-5.91,3.496-19.04-4.878-21.805-0.728c-2.765,4.15-5.589,3.428-1.091,9.82c4.498,6.393,14.075,4.54,14.547,5.628
			c0.473,1.089,2.396,4.036-1.455,5.646c-3.85,1.611-7.786-1.909-11.275-3.637c-3.744-1.854-15.042-7.786-18.169-7.638
			c-3.127,0.149-4.135,1.36-7.252,4.001c-3.118,2.642-2.377,8.069,0,12.349c2.377,4.279,2.905,6,11.257,7.637
			c8.353,1.637,30.435,3.857,34.878,0c4.444-3.857,7.4-10.502,6.546-14.548c-0.854-4.045-11.792-7.063-7.447-9.3
			c4.346-2.238,20.944-4.099,20.887,0.953c-0.058,5.052-11.3,0.16-9.3,8.85c2,8.69,5.751,2.322,10.755,0.416
			c5.004-1.906,8.424-6.315,13.821-5.265c5.396,1.051,2.116,6.756,9.75,8.399s17.327,4.859,21.597-0.121s5.896-19.201,1.836-20.333
			s-20.203-1.701-23.381,0.779C210.402,319.423,211.761,322.762,211.761,322.762z M211.761,322.762"/>
		<path fill="#19B3B8" d="M151.229,354.862c0,0,18.439,26.957,26.192,27.344c7.753,0.389,13.604-0.978,14.503-6.779
			c0.898-5.8-13.85-22.348-22.319-24.901C161.136,347.974,154.618,354.862,151.229,354.862L151.229,354.862z M157.951,353.642"/>
		<path fill="#19B3B8" d="M177.722,349.95c1.227,2.28,3.374,8.09,10.894,9.803c7.521,1.713,21.9-1.454,24.576-5.49
			s3.069-10.992,0-14.133s-27.463-1.711-31.625,0S176.495,347.67,177.722,349.95z M177.722,349.95"/>
		<path fill="#19B3B8" d="M182.537,282.059c2.91,3.001-2.031,14.983-0.814,16.28c1.216,1.296,2.147,3.405,6.183,2.306
			c4.036-1.099,9.439-14.169,9.439-14.169s5.588-21.904,1.091-27.02c-4.497-5.115-13.357-3.236-18.167-2.927
			c-4.811,0.309-14.454,14.777-13.63,20.56C167.461,282.872,179.626,279.059,182.537,282.059z M182.537,282.059"/>
		<path fill="#19B3B8" d="M198.685,291.139c0,0-2.746,6.978,0,9.816s7.38,2.34,10.167,0s18.031-7.126,18.167-15.256
			c0.137-8.13-13.745-19.647-18.167-19.258c-4.423,0.389-3.728,2.747-5.074,4.814c-1.347,2.068,2.052,6.067,0.727,12.435
			S198.685,291.139,198.685,291.139z M198.685,291.139"/>
		<path fill="#19B3B8" d="M131.505,283.689c-5,1.622-5.643,4.628-3.325,6.372c2.317,1.744,6.727,8.169,3.275,9.078
			c-3.452,0.908-2.211-3.828-9.075-3.083c-6.864,0.745-8.385,8.035-6.375,11.258s9.901,10.475,14.946,10.72
			s10.057-1.267,11.047-4.329c0.991-3.063-0.235-10.343,4.124-12.75c4.359-2.406,2.094,3.56,4.226,5.821
			c2.132,2.262,18.956,1.573,22.532-1.455c3.576-3.027,5.449-16.454,3.637-21.441c-1.812-4.986-15.588-1.357-17.44-5.458
			c-1.852-4.101,5.817-8.26,5.817-8.26s7.105-7.016,7.086-11.168c-0.019-4.153-11.05-4.92-11.05-4.92s-18.878-4.205-23.432-0.191
			c-4.554,4.014-3.299,17.464-0.277,22.448c3.021,4.983,20.295,6.897,18.776,11.186c-1.519,4.288-5.648,2.544-5.648,2.544
			S136.504,282.068,131.505,283.689z M131.505,283.689"/>
	</g>
</g>
</svg>
