<?xml version="1.0" encoding="utf-8"?>
<!-- Generator: Adobe Illustrator 16.0.0, SVG Export Plug-In . SVG Version: 6.00 Build 0)  -->
<!DOCTYPE svg PUBLIC "-//W3C//DTD SVG 1.1//EN" "http://www.w3.org/Graphics/SVG/1.1/DTD/svg11.dtd">
<svg version="1.1" id="Layer_1" xmlns="http://www.w3.org/2000/svg" xmlns:xlink="http://www.w3.org/1999/xlink" x="0px" y="0px"
	 width="1280px" height="800px" viewBox="0 0 1280 800" enable-background="new 0 0 1280 800" xml:space="preserve">
<path fill="#22B573" d="M677.992,424.881l0.199,1.479l-2.217,0.459l-0.299,3.142h2.656l3.535-0.345l1.818-2.157l-1.938-0.757
	l-1.059-1.216l-1.598-2.577l-0.76-3.638l-2.996,0.599l-0.84,1.299v1.438l1.439,0.977L677.992,424.881z M677.992,424.881"/>
<path fill="#22B573" d="M675.455,426.104l0.16-1.979l-1.758-0.762l-2.457,0.562l-1.818,2.937v1.875h2.117L675.455,426.104z
	 M675.455,426.104"/>
<path fill="#22B573" d="M624.935,434.47"/>
<rect fill="#F6BC99" width="1280" height="800"/>
<g>
	<g>
		<polygon fill="#F4EB9A" points="74.443,516.617 87.508,498.611 100.574,480.605 131.599,516.862 162.623,553.118 118.532,534.867 
					"/>
		<polygon fill="#F4EB9A" points="160.129,466.369 174.15,457.491 188.171,448.613 199.678,482.298 211.185,515.982 
			185.657,491.176 		"/>
		<polygon fill="#F4EB9A" points="250.331,408.768 272.566,409.486 294.801,410.205 282.184,456.225 269.565,502.244 
			259.948,455.505 		"/>
		<polygon fill="#F4EB9A" points="358.592,456.305 371.023,464.625 383.453,472.947 359.88,494.714 336.308,516.48 347.451,486.392 
					"/>
		<polygon fill="#F4EB9A" points="427.449,481.195 442.41,497.66 457.37,514.125 415.546,537.098 373.722,560.07 400.586,520.633 		
			"/>
	</g>
	<g>
		<path fill="#19B3B8" d="M211.942,575.858c-1.729-8.344-19.662-6.022-16.019-9.616s15.098,4.937,23.577-0.326
			s11.266-22.231,0-20.916s-30.862,7.15-34.487,13.401s-4.936,7.314-7.024,12.114s26.97,7.256,23.274,10.194s-23.478-3.605-29.587,0
			s-6.716,21.895-2.913,24.25s21.458,5.645,28.131,0S213.672,584.202,211.942,575.858z M211.942,575.858"/>
		<path fill="#19B3B8" d="M189.772,615.031c-4.781-2.939-17.471-1.635-20.622,0s21.735,26.325,30.327,25.125
			s16.851-0.839,16.972-6.795S194.553,617.971,189.772,615.031z M189.772,615.031"/>
		<path fill="#19B3B8" d="M331.12,635.649c0,0,12.782,4.661,11.164,5.339s-12.419,2.772-16.019-1.941s0.25-12.38,5.825-15.047
			s34.277,2.858,34.926-2.404s-5.773-27.582-14.562-24.756s-20.532,17.31-27.16,19.901s-9.779-9.452-25.704-7.764
			S281.775,619.334,273.888,624s-25.412-6.511-29.102-0.972s-7.459,4.575-1.456,13.106s18.786,6.059,19.416,7.512
			s3.197,5.386-1.941,7.536s-10.391-2.548-15.048-4.854c-4.997-2.475-20.076-10.392-24.25-10.193s-5.519,1.814-9.68,5.34
			s-3.173,10.77,0,16.48s3.877,8.009,15.025,10.193s40.62,5.148,46.55,0s9.877-14.017,8.737-19.416s-15.739-9.427-9.939-12.413
			s27.953-5.471,27.876,1.271s-15.082,0.214-12.413,11.812s7.676,3.099,14.354,0.555s11.243-8.429,18.445-7.026
			s2.825,9.018,13.014,11.21s23.126,6.485,28.824-0.161s7.869-25.627,2.45-27.137s-26.964-2.271-31.205,1.04
			S331.12,635.649,331.12,635.649z M331.12,635.649"/>
		<path fill="#19B3B8" d="M250.331,678.492c0,0,24.61,35.979,34.958,36.495c10.347,0.519,18.157-1.305,19.356-9.047
			c1.198-7.741-18.485-29.827-29.788-33.234S254.854,678.492,250.331,678.492L250.331,678.492z M259.302,676.863"/>
		<path fill="#19B3B8" d="M285.69,671.937c1.638,3.043,4.502,10.797,14.54,13.083s29.229-1.94,32.8-7.327s4.096-14.671,0-18.862
			s-36.653-2.284-42.208,0S284.052,668.894,285.69,671.937z M285.69,671.937"/>
		<path fill="#19B3B8" d="M292.115,581.326c3.884,4.005-2.71,19.997-1.086,21.728s2.866,4.544,8.252,3.077
			s12.598-18.911,12.598-18.911s7.458-29.234,1.456-36.062s-17.826-4.318-24.247-3.906s-19.291,19.723-18.191,27.44
			S288.231,577.321,292.115,581.326z M292.115,581.326"/>
		<path fill="#19B3B8" d="M313.668,593.444c0,0-3.665,9.312,0,13.101s9.849,3.123,13.568,0s24.065-9.511,24.248-20.361
			s-18.344-26.223-24.248-25.703s-4.975,3.666-6.772,6.426s2.739,8.098,0.971,16.596S313.668,593.444,313.668,593.444z
			 M313.668,593.444"/>
		<path fill="#19B3B8" d="M224.006,583.502c-6.673,2.164-7.531,6.177-4.438,8.504s8.978,10.903,4.372,12.115
			s-2.952-5.109-12.112-4.115s-11.19,10.724-8.509,15.025s13.214,13.98,19.948,14.308s13.422-1.69,14.745-5.778
			s-0.314-13.804,5.504-17.016s2.795,4.751,5.64,7.77s25.299,2.099,30.072-1.941s7.272-21.961,4.854-28.616
			s-20.805-1.812-23.276-7.284s7.764-11.023,7.764-11.023s9.482-9.363,9.457-14.906s-14.748-6.566-14.748-6.566
			s-25.196-5.612-31.274-0.255s-4.403,23.309-0.37,29.96s27.086,9.206,25.06,14.929s-7.539,3.396-7.539,3.396
			S230.679,581.338,224.006,583.502z M224.006,583.502"/>
	</g>
</g>
</svg>
