<?xml version="1.0" encoding="utf-8"?>
<!-- Generator: Adobe Illustrator 16.0.0, SVG Export Plug-In . SVG Version: 6.00 Build 0)  -->
<!DOCTYPE svg PUBLIC "-//W3C//DTD SVG 1.1//EN" "http://www.w3.org/Graphics/SVG/1.1/DTD/svg11.dtd">
<svg version="1.1" id="Layer_1" xmlns="http://www.w3.org/2000/svg" xmlns:xlink="http://www.w3.org/1999/xlink" x="0px" y="0px"
	 width="1280px" height="800px" viewBox="0 0 1280 800" enable-background="new 0 0 1280 800" xml:space="preserve">
<path fill="#22B573" d="M677.992,424.881l0.199,1.479l-2.217,0.459l-0.299,3.142h2.656l3.535-0.345l1.818-2.157l-1.938-0.757
	l-1.059-1.216l-1.598-2.577l-0.76-3.638l-2.996,0.599l-0.84,1.299v1.438l1.439,0.977L677.992,424.881z M677.992,424.881"/>
<path fill="#22B573" d="M675.455,426.104l0.16-1.979l-1.758-0.762l-2.457,0.562l-1.818,2.937v1.875h2.117L675.455,426.104z
	 M675.455,426.104"/>
<path fill="#22B573" d="M624.935,434.47"/>
<rect fill="#F6BC99" width="1280" height="800"/>
<g>
	<g>
		<path fill="#99DDE0" d="M425.928,499.542c0-0.449-0.147-0.954-0.367-1.385l-25.882-47.229c-0.22-0.504-0.733-0.961-1.247-1.181
			c1.1-1.237,1.76-2.778,1.76-4.62v-12.611c0-3.959-3.226-7.177-7.186-7.177h-16.938c-4.032,0-7.258,3.218-7.258,7.177v12.611
			c0,1.842,0.733,3.383,1.759,4.62c-0.504,0.22-0.953,0.677-1.237,1.181l-25.809,47.229c-0.229,0.431-0.376,0.936-0.376,1.385
			v124.626c0,0.24,0,0.386,0.074,0.532c-0.074,0.294-0.074,0.588-0.074,0.808c0,8.284,7.186,17.817,16.424,17.817
			c5.279,0,9.605-2.934,12.465-6.747c2.851,3.813,7.258,6.747,12.464,6.747c5.27,0,9.605-2.934,12.465-6.747
			c2.859,3.813,7.186,6.747,12.465,6.747c9.311,0,16.497-9.533,16.497-17.817c0-0.22-0.073-0.44-0.073-0.734
			c0-0.22,0.073-0.365,0.073-0.605V499.542z M419.915,623.289c-0.146,0.385-0.22,0.807-0.146,1.265l0.146,0.954
			c0,5.353-4.839,11.805-10.484,11.805c-4.547,0-8.212-4.106-9.605-7.919c-0.439-1.174-1.613-1.907-2.859-1.907
			c-1.247,0-2.346,0.733-2.786,1.907c-1.467,3.812-5.142,7.919-9.679,7.919c-4.545,0-8.203-4.106-9.614-7.919
			c-0.935-2.272-4.749-2.272-5.628,0c-1.484,3.812-5.067,7.919-9.687,7.919c-5.646,0-10.42-6.452-10.42-11.805l0.155-0.954
			c0-0.386,0-0.806-0.155-1.19V500.348l24.571-44.954h21.556l24.636,44.954V623.289z M419.915,623.289"/>
		<path fill="#004853" d="M356.272,536.789v29.842c0,3.373,2.712,6.159,6.077,6.159h44.369c3.373,0,6.086-2.786,6.086-6.159v-29.842
			c0-3.382-2.713-6.086-6.086-6.086h-44.369C358.985,530.703,356.272,533.407,356.272,536.789L356.272,536.789z M356.272,536.789"/>
		<path fill="#007E80" d="M402.832,495.655c0,5.499-8.212,9.899-18.331,9.899c-10.118,0-18.267-4.4-18.267-9.899
			c0-5.426,8.148-9.834,18.267-9.834C394.62,485.821,402.832,490.229,402.832,495.655L402.832,495.655z M402.832,495.655"/>
	</g>
	<g>
		<path fill="#8EC6C6" d="M214.476,499.542c0-0.449-0.147-0.954-0.367-1.385l-25.883-47.229c-0.22-0.504-0.732-0.961-1.246-1.181
			c1.1-1.237,1.76-2.778,1.76-4.62v-12.611c0-3.959-3.226-7.177-7.186-7.177h-16.938c-4.032,0-7.259,3.218-7.259,7.177v12.611
			c0,1.842,0.734,3.383,1.76,4.62c-0.504,0.22-0.953,0.677-1.237,1.181l-25.809,47.229c-0.229,0.431-0.375,0.936-0.375,1.385
			v124.626c0,0.24,0,0.386,0.073,0.532c-0.073,0.294-0.073,0.588-0.073,0.808c0,8.284,7.186,17.817,16.424,17.817
			c5.279,0,9.605-2.934,12.465-6.747c2.85,3.813,7.258,6.747,12.464,6.747c5.27,0,9.605-2.934,12.465-6.747
			c2.859,3.813,7.186,6.747,12.464,6.747c9.312,0,16.498-9.533,16.498-17.817c0-0.22-0.074-0.44-0.074-0.734
			c0-0.22,0.074-0.365,0.074-0.605V499.542z M208.463,623.289c-0.147,0.385-0.22,0.807-0.147,1.265l0.147,0.954
			c0,5.353-4.839,11.805-10.485,11.805c-4.546,0-8.212-4.106-9.605-7.919c-0.439-1.174-1.613-1.907-2.859-1.907
			s-2.347,0.733-2.787,1.907c-1.466,3.812-5.141,7.919-9.678,7.919c-4.546,0-8.203-4.106-9.614-7.919
			c-0.935-2.272-4.748-2.272-5.627,0c-1.484,3.812-5.067,7.919-9.688,7.919c-5.646,0-10.42-6.452-10.42-11.805l0.155-0.954
			c0-0.386,0-0.806-0.155-1.19V500.348l24.571-44.954h21.557l24.636,44.954V623.289z M208.463,623.289"/>
		<path fill="#19B3B8" d="M144.82,536.789v29.842c0,3.373,2.713,6.159,6.078,6.159h44.368c3.374,0,6.086-2.786,6.086-6.159v-29.842
			c0-3.382-2.712-6.086-6.086-6.086h-44.368C147.533,530.703,144.82,533.407,144.82,536.789L144.82,536.789z M144.82,536.789"/>
		<path fill="#8EAEB2" d="M191.379,495.655c0,5.499-8.212,9.899-18.331,9.899s-18.266-4.4-18.266-9.899
			c0-5.426,8.148-9.834,18.266-9.834S191.379,490.229,191.379,495.655L191.379,495.655z M191.379,495.655"/>
	</g>
	<g>
		<path fill="#007E80" d="M328.548,492.526c0-0.54-0.177-1.146-0.441-1.664l-31.102-56.751c-0.264-0.605-0.881-1.155-1.498-1.42
			c1.321-1.486,2.115-3.337,2.115-5.55v-15.154c0-4.758-3.877-8.624-8.635-8.624h-20.353c-4.845,0-8.722,3.866-8.722,8.624v15.154
			c0,2.213,0.881,4.063,2.114,5.55c-0.606,0.265-1.145,0.814-1.487,1.42l-31.014,56.751c-0.274,0.519-0.451,1.124-0.451,1.664
			v149.757c0,0.287,0,0.463,0.088,0.64c-0.088,0.352-0.088,0.705-0.088,0.969c0,9.957,8.635,21.41,19.736,21.41
			c6.343,0,11.541-3.524,14.978-8.105c3.425,4.581,8.722,8.105,14.977,8.105c6.333,0,11.542-3.524,14.978-8.105
			c3.437,4.581,8.635,8.105,14.979,8.105c11.189,0,19.824-11.453,19.824-21.41c0-0.264-0.088-0.528-0.088-0.881
			c0-0.265,0.088-0.44,0.088-0.728V492.526z M321.322,641.227c-0.176,0.463-0.264,0.969-0.176,1.52l0.176,1.146
			c0,6.433-5.814,14.186-12.599,14.186c-5.463,0-9.868-4.934-11.542-9.516c-0.528-1.409-1.938-2.291-3.437-2.291
			c-1.497,0-2.819,0.882-3.348,2.291c-1.763,4.582-6.178,9.516-11.63,9.516c-5.461,0-9.856-4.934-11.552-9.516
			c-1.124-2.73-5.706-2.73-6.762,0c-1.784,4.582-6.09,9.516-11.641,9.516c-6.785,0-12.522-7.753-12.522-14.186l0.187-1.146
			c0-0.463,0-0.969-0.187-1.432V493.495l29.526-54.02h25.903l29.604,54.02V641.227z M321.322,641.227"/>
		<path fill="#F3A298" d="M244.847,537.283v35.859c0,4.053,3.26,7.402,7.303,7.402h53.314c4.054,0,7.313-3.35,7.313-7.402v-35.859
			c0-4.062-3.259-7.312-7.313-7.312h-53.314C248.107,529.971,244.847,533.221,244.847,537.283L244.847,537.283z M244.847,537.283"/>
		<path fill="#004853" d="M300.794,487.856c0,6.608-9.868,11.895-22.027,11.895c-12.158,0-21.949-5.286-21.949-11.895
			c0-6.52,9.791-11.817,21.949-11.817C290.926,476.039,300.794,481.337,300.794,487.856L300.794,487.856z M300.794,487.856"/>
	</g>
</g>
</svg>
