<?xml version="1.0" encoding="utf-8"?>
<!-- Generator: Adobe Illustrator 16.0.0, SVG Export Plug-In . SVG Version: 6.00 Build 0)  -->
<!DOCTYPE svg PUBLIC "-//W3C//DTD SVG 1.1//EN" "http://www.w3.org/Graphics/SVG/1.1/DTD/svg11.dtd">
<svg version="1.1" id="Layer_1" xmlns="http://www.w3.org/2000/svg" xmlns:xlink="http://www.w3.org/1999/xlink" x="0px" y="0px"
	 width="1280px" height="800px" viewBox="0 0 1280 800" enable-background="new 0 0 1280 800" xml:space="preserve">
<path fill="#22B573" d="M677.992,424.881l0.199,1.479l-2.217,0.459l-0.299,3.142h2.656l3.535-0.345l1.818-2.157l-1.938-0.757
	l-1.059-1.216l-1.598-2.577l-0.76-3.638l-2.996,0.599l-0.84,1.299v1.438l1.439,0.977L677.992,424.881z M677.992,424.881"/>
<path fill="#22B573" d="M675.455,426.104l0.16-1.979l-1.758-0.762l-2.457,0.562l-1.818,2.937v1.875h2.117L675.455,426.104z
	 M675.455,426.104"/>
<path fill="#22B573" d="M624.935,434.47"/>
<rect fill="#F6BC99" width="1280" height="800"/>
<g opacity="0.3">
	<g>
		<path fill="#99DDE0" d="M279.798,243.971c0-0.387-0.127-0.823-0.316-1.194l-22.328-40.743c-0.19-0.435-0.633-0.829-1.076-1.019
			c0.949-1.067,1.519-2.397,1.519-3.986V186.15c0-3.416-2.783-6.191-6.199-6.191h-14.612c-3.479,0-6.262,2.776-6.262,6.191v10.879
			c0,1.589,0.632,2.918,1.518,3.986c-0.436,0.189-0.822,0.584-1.068,1.019l-22.265,40.743c-0.198,0.372-0.324,0.807-0.324,1.194
			v107.512c0,0.208,0,0.333,0.063,0.459c-0.063,0.253-0.063,0.507-0.063,0.696c0,7.147,6.199,15.371,14.169,15.371
			c4.554,0,8.286-2.531,10.753-5.821c2.459,3.29,6.262,5.821,10.753,5.821c4.546,0,8.286-2.531,10.753-5.821
			c2.467,3.29,6.199,5.821,10.753,5.821c8.032,0,14.231-8.224,14.231-15.371c0-0.189-0.063-0.38-0.063-0.633
			c0-0.189,0.063-0.315,0.063-0.522V243.971z M274.611,350.725c-0.126,0.332-0.19,0.696-0.126,1.091l0.126,0.823
			c0,4.618-4.174,10.184-9.044,10.184c-3.923,0-7.085-3.543-8.287-6.832c-0.379-1.013-1.392-1.646-2.467-1.646
			c-1.076,0-2.024,0.633-2.403,1.646c-1.266,3.289-4.436,6.832-8.35,6.832c-3.921,0-7.077-3.543-8.294-6.832
			c-0.807-1.96-4.096-1.96-4.855,0c-1.28,3.289-4.372,6.832-8.356,6.832c-4.871,0-8.989-5.566-8.989-10.184l0.133-0.823
			c0-0.333,0-0.695-0.133-1.027V244.667l21.197-38.781h18.596l21.253,38.781V350.725z M274.611,350.725"/>
		<path fill="#004853" d="M219.708,276.104v25.744c0,2.91,2.34,5.313,5.242,5.313h38.276c2.91,0,5.25-2.403,5.25-5.313v-25.744
			c0-2.917-2.341-5.25-5.25-5.25H224.95C222.048,270.854,219.708,273.186,219.708,276.104L219.708,276.104z M219.708,276.104"/>
		<path fill="#007E80" d="M259.873,240.618c0,4.744-7.084,8.54-15.813,8.54s-15.758-3.796-15.758-8.54
			c0-4.681,7.029-8.483,15.758-8.483S259.873,235.938,259.873,240.618L259.873,240.618z M259.873,240.618"/>
	</g>
	<g>
		<path fill="#8EC6C6" d="M97.383,243.971c0-0.387-0.126-0.823-0.316-1.194l-22.329-40.743c-0.189-0.435-0.632-0.829-1.075-1.019
			c0.949-1.067,1.518-2.397,1.518-3.986V186.15c0-3.416-2.783-6.191-6.199-6.191H54.371c-3.479,0-6.262,2.776-6.262,6.191v10.879
			c0,1.589,0.633,2.918,1.518,3.986c-0.435,0.189-0.822,0.584-1.067,1.019l-22.265,40.743c-0.197,0.372-0.324,0.807-0.324,1.194
			v107.512c0,0.208,0,0.333,0.063,0.459c-0.063,0.253-0.063,0.507-0.063,0.696c0,7.147,6.199,15.371,14.168,15.371
			c4.554,0,8.287-2.531,10.753-5.821c2.458,3.29,6.262,5.821,10.752,5.821c4.546,0,8.286-2.531,10.753-5.821
			c2.466,3.29,6.199,5.821,10.752,5.821c8.033,0,14.232-8.224,14.232-15.371c0-0.189-0.063-0.38-0.063-0.633
			c0-0.189,0.063-0.315,0.063-0.522V243.971z M92.196,350.725c-0.126,0.332-0.19,0.696-0.126,1.091l0.126,0.823
			c0,4.618-4.175,10.184-9.045,10.184c-3.921,0-7.084-3.543-8.286-6.832c-0.379-1.013-1.391-1.646-2.466-1.646
			c-1.076,0-2.024,0.633-2.404,1.646c-1.265,3.289-4.435,6.832-8.349,6.832c-3.921,0-7.076-3.543-8.294-6.832
			c-0.806-1.96-4.096-1.96-4.854,0c-1.28,3.289-4.372,6.832-8.357,6.832c-4.87,0-8.989-5.566-8.989-10.184l0.134-0.823
			c0-0.333,0-0.695-0.134-1.027V244.667l21.197-38.781h18.597l21.253,38.781V350.725z M92.196,350.725"/>
		<path fill="#19B3B8" d="M37.292,276.104v25.744c0,2.91,2.341,5.313,5.243,5.313H80.81c2.91,0,5.25-2.403,5.25-5.313v-25.744
			c0-2.917-2.34-5.25-5.25-5.25H42.535C39.633,270.854,37.292,273.186,37.292,276.104L37.292,276.104z M37.292,276.104"/>
		<path fill="#8EAEB2" d="M77.458,240.618c0,4.744-7.084,8.54-15.813,8.54c-8.729,0-15.758-3.796-15.758-8.54
			c0-4.681,7.029-8.483,15.758-8.483C70.374,232.135,77.458,235.938,77.458,240.618L77.458,240.618z M77.458,240.618"/>
	</g>
	<g>
		<path fill="#007E80" d="M195.791,237.919c0-0.466-0.153-0.988-0.38-1.436l-26.831-48.958c-0.228-0.522-0.76-0.997-1.292-1.225
			c1.14-1.282,1.825-2.879,1.825-4.788V168.44c0-4.104-3.345-7.44-7.449-7.44h-17.558c-4.18,0-7.524,3.335-7.524,7.44v13.073
			c0,1.909,0.76,3.505,1.824,4.788c-0.523,0.229-0.988,0.703-1.282,1.225l-26.755,48.958c-0.237,0.447-0.39,0.97-0.39,1.436v129.192
			c0,0.248,0,0.399,0.076,0.552c-0.076,0.303-0.076,0.608-0.076,0.835c0,8.59,7.449,18.47,17.026,18.47
			c5.472,0,9.956-3.041,12.921-6.992c2.954,3.952,7.524,6.992,12.92,6.992c5.463,0,9.957-3.041,12.921-6.992
			c2.965,3.952,7.449,6.992,12.922,6.992c9.653,0,17.102-9.88,17.102-18.47c0-0.228-0.076-0.456-0.076-0.76
			c0-0.229,0.076-0.38,0.076-0.627V237.919z M189.557,366.2c-0.152,0.399-0.228,0.835-0.152,1.311l0.152,0.988
			c0,5.549-5.016,12.238-10.869,12.238c-4.713,0-8.513-4.256-9.957-8.209c-0.456-1.216-1.672-1.977-2.965-1.977
			c-1.292,0-2.432,0.761-2.888,1.977c-1.521,3.953-5.33,8.209-10.033,8.209c-4.712,0-8.503-4.256-9.966-8.209
			c-0.969-2.355-4.922-2.355-5.833,0c-1.539,3.953-5.253,8.209-10.042,8.209c-5.853,0-10.802-6.688-10.802-12.238l0.161-0.988
			c0-0.399,0-0.835-0.161-1.235V238.755l25.471-46.602h22.346l25.539,46.602V366.2z M189.557,366.2"/>
		<path fill="#F3A298" d="M123.583,276.53v30.935c0,3.497,2.812,6.386,6.3,6.386h45.994c3.497,0,6.309-2.889,6.309-6.386V276.53
			c0-3.504-2.812-6.308-6.309-6.308h-45.994C126.396,270.222,123.583,273.025,123.583,276.53L123.583,276.53z M123.583,276.53"/>
		<path fill="#004853" d="M171.848,233.891c0,5.701-8.513,10.261-19.002,10.261c-10.488,0-18.935-4.56-18.935-10.261
			c0-5.625,8.447-10.195,18.935-10.195C163.335,223.696,171.848,228.266,171.848,233.891L171.848,233.891z M171.848,233.891"/>
	</g>
</g>
</svg>
