<?xml version="1.0" encoding="utf-8"?>
<!-- Generator: Adobe Illustrator 18.1.0, SVG Export Plug-In . SVG Version: 6.00 Build 0)  -->
<!DOCTYPE svg PUBLIC "-//W3C//DTD SVG 1.1//EN" "http://www.w3.org/Graphics/SVG/1.1/DTD/svg11.dtd" [
	<!ENTITY ns_extend "http://ns.adobe.com/Extensibility/1.0/">
	<!ENTITY ns_ai "http://ns.adobe.com/AdobeIllustrator/10.0/">
	<!ENTITY ns_graphs "http://ns.adobe.com/Graphs/1.0/">
	<!ENTITY ns_vars "http://ns.adobe.com/Variables/1.0/">
	<!ENTITY ns_imrep "http://ns.adobe.com/ImageReplacement/1.0/">
	<!ENTITY ns_sfw "http://ns.adobe.com/SaveForWeb/1.0/">
	<!ENTITY ns_custom "http://ns.adobe.com/GenericCustomNamespace/1.0/">
	<!ENTITY ns_adobe_xpath "http://ns.adobe.com/XPath/1.0/">
]>
<svg version="1.1" id="Layer_1" xmlns:x="&ns_extend;" xmlns:i="&ns_ai;" xmlns:graph="&ns_graphs;"
	 xmlns="http://www.w3.org/2000/svg" xmlns:xlink="http://www.w3.org/1999/xlink" x="0px" y="0px" viewBox="-53.4 22.1 592.5 589.5"
	 enable-background="new -53.4 22.1 592.5 589.5" xml:space="preserve">
<metadata>
	<sfw  xmlns="&ns_sfw;">
		<slices></slices>
		<sliceSourceBounds  width="562.5" height="562.5" bottomLeftOrigin="true" y="41.9" x="-38.4"></sliceSourceBounds>
		<optimizationSettings>
			<targetSettings  targetSettingsID="0" fileFormat="PNG8Format">
				
					<PNG8Format  transparency="true" rolloverMasterPalette="false" reductionAlgorithm="perceptual" matteColor="#FFFFFF" noMatteColor="false" webShiftPercent="0" ditherPercent="100" ditherAlgorithm="none" numColors="128" autoReduce="false" interlaced="true">
					<colorTable  isExact="false"></colorTable>
					<lockedColors></lockedColors>
					<colorShiftEntries></colorShiftEntries>
				</PNG8Format>
			</targetSettings>
		</optimizationSettings>
	</sfw>
</metadata>
<path fill="none" d="M273.7,220.5c-34.3-60.7-40.5-163.9-37.6-164.7c0,0-0.1,0.1-0.5,0.4c0-0.4,0.1-0.5,0.1-0.5
	c0.3-2.5-114.4,61.5-158.3,155.1C28.7,298.1,47,419.3,136.9,463.6c44.5,22.5,85.5,18.8,114.1,2.1c29.9-15.7,49.1-44,60.3-75.6
	C333.7,328.7,303.1,284.7,273.7,220.5z"/>
<g>
	<circle fill="#FFFFFF" cx="242.8" cy="316.8" r="281.2"/>
	<g>
		<g>
			<path fill="#FFFFFF" d="M276.1,217.6C241.8,157,235.7,54.1,238.6,53.4c0,0-0.1,0.1-0.5,0.4c0-0.4,0.1-0.5,0.1-0.5
				c0.4-2.4-114,61.3-157.7,154.8C31.9,294.9,50.1,415.8,139.7,460c44.4,22.5,85.2,18.7,113.7,2.1c29.9-15.7,48.9-43.9,60-75.3
				C335.8,325.4,305.3,281.6,276.1,217.6z"/>
			<g>
				
					<linearGradient id="SVGID_1_" gradientUnits="userSpaceOnUse" x1="96.0499" y1="164.9921" x2="24.3408" y2="302.5324" gradientTransform="matrix(1.3333 0 0 1.3333 26.6667 2.137741e-02)">
					<stop  offset="0" style="stop-color:#19B3B8"/>
					<stop  offset="0.1888" style="stop-color:#19B3B8"/>
					<stop  offset="1" style="stop-color:#004853"/>
				</linearGradient>
				<path fill="url(#SVGID_1_)" d="M174.5,241c0-15.5-2.9-26.1-8.4-32.9c-5.5-6.8-13.5-9.7-23.6-9.7s-18.1,2.9-23.6,9.7
					s-8.4,17.5-8.4,32.9v23.5V288H83H55.3c-2.8,27.9-0.1,55.9,8.3,81.5s22.4,48.8,42.1,67.1c3.6-40.3,20.8-63.9,37.1-90
					C159,320.4,174.5,291.8,174.5,241z"/>
				<path fill="#19B3B8" d="M276.3,217.3c-8.5-15.2-15.3-32.9-20.8-51.2c-5.3-18.1-9.2-36.8-12-53.5s-4.3-31.6-4.9-42.4
					c-0.7-10.7-0.5-17.3,0.3-17.5l0,0c0,0,0,0-0.1,0.1l-0.1,0.1c-0.1,0-0.1,0.1-0.3,0.1c0-0.1,0-0.1,0-0.3s0-0.1,0-0.1v-0.1l0,0
					c0-0.4-3.6,1.3-10,4.9s-15.3,9.3-25.9,16.7s-22.7,16.4-35.2,27.1s-25.6,22.7-38,36.1c1.2-0.1,2.4-0.3,3.6-0.4
					c1.2-0.1,2.5-0.1,3.7-0.3s2.5-0.1,3.9-0.1s2.5,0,3.9,0c15.5,0,29.2,2.5,40.8,7.3s21.5,11.9,29.3,21.2
					c7.9,9.3,13.7,20.7,17.7,34.1c4,13.5,6,28.9,6,46.3c0,28.1-4.7,50.4-11.7,69.1c-7.1,18.7-16.5,33.9-25.9,48
					c-9.3,14.1-18.8,27.3-25.9,41.7c-7.1,14.4-11.7,30.4-11.7,50.3c0,1.3,0,2.5,0,3.9c0,1.3,0.1,2.5,0.1,3.9
					c0.1,1.3,0.1,2.5,0.3,3.9c0.1,1.3,0.3,2.5,0.4,3.9c8.8,2.7,17.3,4.4,25.5,5.3c8.3,0.8,16.1,0.8,23.7,0s14.8-2.4,21.6-4.5
					c6.8-2.3,13.1-5.1,18.9-8.4c7.5-4,14.3-8.7,20.4-14s11.7-11.3,16.7-17.9c4.9-6.5,9.3-13.5,13.2-20.8c3.9-7.3,7.1-15.1,9.9-22.9
					c5.6-15.3,7.9-29.6,7.7-43.3c-0.1-13.7-2.8-27.1-7.1-40.4s-10.1-26.8-16.8-40.9C291,248.1,283.7,233.3,276.3,217.3z"/>
			</g>
			<g>
				<circle fill="#004853" cx="208.7" cy="429.8" r="8"/>
				<path opacity="0.23" fill="#007E80" enable-background="new    " d="M257.8,379.3c25.7,25.7,32.9,51.2,32.9,51.2
					c-4.9,6.5-10.5,12.5-16.7,17.9c-6.1,5.3-12.9,10-20.4,14c-5.9,3.3-12.1,6.3-18.9,8.4c-6.8,2.3-14,3.7-21.6,4.5s-15.6,0.8-23.7,0
					c-8.3-0.8-16.8-2.5-25.5-5.3c-0.1-1.3-0.3-2.5-0.4-3.9c-0.1-1.3-0.3-2.5-0.3-3.9c-0.1-1.3-0.1-2.5-0.1-3.9s0-2.5,0-3.9
					c0-19.9,4.7-35.7,11.7-50.3c7.1-14.5,16.5-27.6,25.9-41.7C200.6,362.5,231.5,353,257.8,379.3z"/>
			</g>
		</g>
		<g>
			<path fill="#004853" d="M291.8,476.6l-8.1,4.4l16,29.2c0.9,1.7,1.2,3.2,1.1,4.3c-0.1,1.2-0.9,2.1-2,2.7c-1.1,0.5-2.3,0.7-3.3,0.1
				s-2.1-1.6-2.9-3.2l-16-29.2l-8.1,4.4c-1.2,0.7-2.3,0.9-3.3,0.5c-0.9-0.4-1.7-0.9-2.3-2s-0.7-2.1-0.4-2.9c0.4-0.9,1.1-1.7,2.3-2.5
				l23.5-12.7c1.2-0.7,2.5-0.9,3.3-0.5c0.9,0.4,1.7,0.9,2.3,2s0.7,2,0.4,2.9C293.9,475,293.3,475.8,291.8,476.6z"/>
			<path fill="#E20613" d="M334.6,516.8l8,10.5l14.4-10.9l-8-10.5c-1.1-1.6-1.7-2.8-1.6-4c0-1.2,0.5-2.1,1.6-2.9
				c1.1-0.7,2.1-1.1,3.3-0.7c1.2,0.4,2.3,1.2,3.5,2.7l21.9,28.9c1.2,1.6,1.7,2.8,1.6,4c0,1.2-0.5,2.3-1.6,2.9
				c-1.1,0.7-2.1,1.1-3.3,0.7c-1.2-0.4-2.3-1.2-3.5-2.7l-9.3-12.4l-14.4,10.9l9.3,12.4c1.2,1.6,1.7,2.8,1.6,4c0,1.2-0.5,2.3-1.6,2.9
				c-1.1,0.7-2.1,1.1-3.3,0.7c-1.2-0.4-2.3-1.2-3.5-2.7l-21.9-28.9c-1.1-1.6-1.7-2.8-1.6-4c0-1.2,0.5-2.1,1.6-2.9
				c1.1-0.7,2.1-1.1,3.3-0.7C332.3,514.5,333.5,515.4,334.6,516.8z"/>
			<path fill="#E20613" d="M392.9,516l-10-10.5l-19.3-5.6c-1.7-0.5-2.9-1.1-3.9-1.5c-0.9-0.4-1.6-0.9-2-1.2
				c-0.7-0.7-1.1-1.7-1.1-2.8c0-1.1,0.4-2,1.2-2.8c0.9-0.7,1.7-1.1,2.7-1.1c0.9,0.1,2.7,0.5,4.9,1.2l15.2,4.8l-3.9-15.5
				c-0.1-0.9-0.5-1.7-0.7-2.5c-0.1-0.7-0.4-1.2-0.4-2c0-0.7,0-1.2,0.1-1.7s0.5-1.1,0.9-1.5c0.7-0.7,1.6-1.1,2.7-1.1s2,0.5,2.7,1.2
				c0.5,0.5,1.1,1.2,1.2,2.1s0.7,2.1,1.1,3.7l4.5,19.9l10,10.5c1.2,1.5,2,2.7,2.1,3.9c0,1.2-0.4,2.3-1.2,3.2c-0.9,0.9-2,1.2-3.2,1.1
				C395.4,518,394.2,517.3,392.9,516z"/>
			<path fill="#E20613" d="M426.3,467c2.1,1.7,3.5,3.9,4.4,6.4s0.9,4.9,0.1,7.7c-0.7,2.8-2.1,5.3-4.4,8c-2.7,2.9-5.5,5.1-8.7,6
				c-2.1,0.5-4.4,0.7-6.7,0.1s-4.3-1.5-5.6-2.7c-0.9-0.7-1.5-1.6-1.5-2.7c-0.1-1.1,0.1-2,0.9-2.8c0.5-0.7,1.2-1.1,2.1-1.1
				s2,0.1,3.2,0.7c1.5,0.5,2.8,0.9,3.9,1.1c1.1,0.1,2.3,0,3.5-0.4s2.5-1.2,3.5-2.7c1.6-2,2.5-3.9,2.5-5.9s-0.7-3.7-2.1-4.9
				c-1.2-1.1-2.3-1.6-3.7-1.5c-1.2,0-2.5,0.4-3.7,1.1s-2.8,1.6-4.8,2.9c-2.5,1.7-4.9,2.9-6.9,3.9c-2.1,0.9-4.3,1.1-6.4,0.9
				c-2.1-0.4-4.3-1.2-6.1-2.9c-2-1.6-3.2-3.5-3.9-5.9c-0.7-2.3-0.7-4.5,0.1-7.1c0.7-2.5,2.1-4.9,4.3-7.2c1.6-2,3.3-3.3,5.1-4.3
				c1.7-0.9,3.5-1.5,5.1-1.6c1.7-0.1,3.2,0,4.5,0.4c1.5,0.4,2.5,1.1,3.3,1.7c0.9,0.7,1.5,1.6,1.6,2.8c0.1,1.1,0,2.1-0.7,2.8
				c-0.7,0.7-1.2,1.1-2.1,1.1c-0.7,0-1.7-0.1-2.9-0.5c-1.7-0.5-3.3-0.7-4.8-0.7c-1.5,0.1-2.8,1.1-4.4,2.8c-1.5,1.6-2.1,3.3-2.3,4.9
				c0,1.7,0.5,2.9,1.6,4c0.7,0.5,1.5,0.9,2.3,1.1c0.9,0.1,1.6,0,2.5-0.4s1.7-0.7,2.5-1.1c0.7-0.4,2-1.2,3.5-2.3
				c2-1.5,3.9-2.5,5.6-3.5s3.5-1.6,5.1-2s3.3-0.1,5.1,0.1C422.7,464.6,424.6,465.7,426.3,467z"/>
			<g>
				<path fill="#004853" d="M327,448.2c-3.3-3.2-2.8-5.6-0.5-8.1l10.8-11.3c7.7-8.1,14.7-5.5,18.8-1.6c3.5,3.3,5.3,8.7,2.9,12.7h0.1
					c3.9-2.9,7.2-0.9,10.5,2.3c3.7,3.5,6,4,7.6,5.5c1.7,1.6,1.5,4.4-0.1,6c-3.5,3.7-7.7,0.1-9.2-1.1c-5.6-5.5-8.9-6.7-12.5-2.9
					l-6.4,6.7l9.5,9.2c2.3,2.1,2.5,4.9,0.5,6.9c-2,2.1-4.8,2-6.9-0.1L327,448.2z M343.7,451.2l6.5-6.7c2.5-2.5,4.3-5.9,0.5-9.3
					c-3.5-3.3-6.1-2.3-9.2,0.7l-6.7,7.1L343.7,451.2z"/>
			</g>
			<g>
				<path fill="#004853" d="M234.7,539.3c-0.4,3.9-1.6,5.5-5.1,6c-3.7,0.7-5.3-0.7-6.7-4L212,514.5h-0.1l-2,29.1
					c-0.1,3.7-1.2,5.6-4.9,6.1c-3.5,0.7-5.3-0.4-6.7-3.9l-14.1-33.3c-0.4-0.9-0.9-2-0.9-2.8c-0.5-3.2,1.7-5.1,3.9-5.6
					c2.5-0.5,4.3,0.5,5.3,3.3l10.8,29.5h0.1l1.7-32.1c0.1-2.7,0.9-4.3,4.5-4.8c4-0.7,5.3,1.2,6.4,3.9l11.3,28.5h0.1l0.9-31.6
					c0.1-3.2,1.5-4.5,3.7-5.1c2.3-0.4,4.9,0.7,5.5,3.9c0.1,1.1,0.1,2.1,0,2.9L234.7,539.3z"/>
			</g>
			<g>
				<path fill="#E20613" d="M337.1,558.9c1.1,3.7,0.7,5.6-2.5,7.6c-3.2,2.1-5.1,1.2-7.7-1.2l-20.3-20.7h-0.1l9.3,27.7
					c1.2,3.5,0.9,5.6-2.3,7.7c-2.9,2-4.9,1.6-7.7-1.1l-25.6-25.6c-0.7-0.7-1.5-1.5-2-2.3c-1.7-2.8-0.4-5.5,1.6-6.7
					c2.1-1.5,4-1.1,6.1,1.2l20.9,23.1h0.1l-10.5-30.3c-0.9-2.5-0.7-4.3,2.3-6.1c3.5-2.3,5.3-0.9,7.5,1.2l21.3,22.3h0.1l-11-29.5
					c-1.1-2.9-0.5-4.8,1.6-6.1c2-1.2,4.9-1.2,6.5,1.5c0.5,0.9,0.9,2,1.2,2.8L337.1,558.9z"/>
			</g>
			<g>
				<path fill="#004853" d="M243.1,495.3c0-2.5,1.1-3.9,3.3-4.9l2.1-0.9c2.1-0.9,4-1.1,6.4,1.6l24,28.5c0.7,0.9,2,2.3,2.3,3.3
					c0.9,2.5-0.4,5.1-2.7,6.1c-2,0.9-3.7,0.7-5.3-1.1l-5.1-6.1l-14.8,6.1l0.4,8.3c0.1,2.1-0.9,3.5-2.9,4.4c-2.5,1.1-4.9,0-6-2.7
					c-0.4-1.1-0.5-2.9-0.5-4.3L243.1,495.3z M251.7,500.6L251.7,500.6l1.2,19.7l10.8-4.4L251.7,500.6z"/>
			</g>
			<g>
				<path fill="#004853" d="M297.7,470.9c-2.8-3.7-2.1-6.4,0.7-8.7l18.1-14.8c2.3-1.7,4.4-2.5,6.5,0.1c2.1,2.7,1.1,4.8-1.2,6.5
					l-14.9,12.1l6.1,8l13.1-10.8c2-1.6,4-2.3,6.1,0.1c2,2.7,0.9,4.5-1.1,6.1L318,480.3l6.9,8.8l15.3-12.5c2.3-1.7,4.4-2.5,6.5,0.1
					c2.1,2.7,1.1,4.8-1.2,6.5L327,498.4c-2.7,2.3-5.5,2.5-8.3-1.2L297.7,470.9z"/>
			</g>
		</g>
	</g>
</g>
</svg>
